<?xml version="1.0" standalone="no"?><!-- Generator: Gravit.io --><svg xmlns="http://www.w3.org/2000/svg" xmlns:xlink="http://www.w3.org/1999/xlink" style="isolation:isolate" viewBox="0 0 64 63.95" width="64" height="63.95"><defs><clipPath id="_clipPath_DPqphjVnJ3gZ59eDM3rh5rLMvmvZ59bV"><rect width="64" height="63.95"/></clipPath></defs><g clip-path="url(#_clipPath_DPqphjVnJ3gZ59eDM3rh5rLMvmvZ59bV)"><g id="ch"><path d=" M 0.3 5.25 Q 0.05 6.3 0 7.55 L 0 56.4 Q 0.05 57.65 0.3 58.7 Q 1.2 62.75 5.3 63.7 Q 6.3 63.9 7.45 63.95 L 56.6 63.95 Q 57.8 63.9 58.75 63.7 Q 62.8 62.75 63.75 58.7 Q 63.95 57.65 64 56.4 L 64 7.55 Q 63.95 6.25 63.75 5.25 Q 63.65 4.95 63.6 4.7 Q 63.2 3.45 62.5 2.5 Q 61.2 0.8 58.75 0.25 Q 57.85 0.05 56.8 0 L 7.25 0 Q 6.2 0.05 5.3 0.25 Q 1.2 1.15 0.3 5.25 Z  M 2.25 5.75 L 2.25 5.7 Q 2.9 2.85 5.75 2.2 Q 6.45 2.05 7.25 2 L 56.7 2 Q 57.55 2.05 58.3 2.2 Q 60 2.6 60.9 3.75 L 60.9 3.7 Q 61.4 4.35 61.7 5.25 Q 61.75 5.5 61.85 5.8 Q 61.95 6.6 62 7.65 L 62 56.35 Q 61.95 57.4 61.8 58.35 L 61.8 58.25 Q 61.15 61.1 58.3 61.75 L 58.35 61.75 Q 57.55 61.9 56.6 61.95 L 7.55 61.95 Q 6.55 61.9 5.7 61.75 L 5.75 61.75 Q 2.9 61.1 2.25 58.3 L 2.25 58.25 Q 2.05 57.4 2 56.4 L 2 7.65 Q 2.05 6.6 2.25 5.75 L 2.25 5.75 Z " fill="rgb(63,168,229)"/><path d=" M 2.25 5.7 L 2.25 5.75 Q 2.05 6.6 2 7.65 L 2 56.4 Q 2.05 57.4 2.25 58.25 L 2.25 58.3 Q 2.9 61.1 5.75 61.75 L 5.7 61.75 Q 6.55 61.9 7.55 61.95 L 56.6 61.95 Q 57.55 61.9 58.35 61.75 L 58.3 61.75 Q 61.15 61.1 61.8 58.25 L 61.8 58.35 Q 61.95 57.4 62 56.35 L 62 7.65 Q 61.95 6.6 61.85 5.8 Q 61.75 5.5 61.7 5.25 Q 61.4 4.35 60.9 3.7 L 60.9 3.75 Q 60 2.6 58.3 2.2 Q 57.55 2.05 56.7 2 L 7.25 2 Q 6.45 2.05 5.75 2.2 Q 2.9 2.85 2.25 5.7 Z  M 10 5.95 L 54 5.95 L 54 33.95 L 10 33.95 L 10 5.95 Z  M 54 42.95 L 54 57.95 L 10 57.95 L 10 42.95 L 54 42.95 Z  M 49 28.25 L 45 28.25 L 45 30.75 L 49 30.75 L 49 28.25 Z  M 45 9.15 L 45 11.7 L 49 11.7 L 49 9.15 L 45 9.15 Z  M 19 28.25 L 15 28.25 L 15 30.75 L 19 30.75 L 19 28.25 Z  M 19 11.7 L 19 9.15 L 15 9.15 L 15 11.7 L 19 11.7 L 19 11.7 Z " fill="rgb(47,149,208)"/><path d=" M 54 57.95 L 54 42.95 L 10 42.95 L 10 57.95 L 54 57.95 Z  M 54 5.95 L 10 5.95 L 10 33.95 L 54 33.95 L 54 5.95 Z  M 19 9.15 L 19 11.7 L 15 11.7 L 15 9.15 L 19 9.15 Z  M 15 28.25 L 19 28.25 L 19 30.75 L 15 30.75 L 15 28.25 Z  M 45 11.7 L 45 9.15 L 49 9.15 L 49 11.7 L 45 11.7 Z  M 45 28.25 L 49 28.25 L 49 30.75 L 45 30.75 L 45 28.25 Z " fill="rgb(38,120,168)"/></g><g id="ci"><path d=" M 56.55 39.95 Q 63.9 39.8 64 35.15 L 64 33.15 Q 63.9 37.8 56.55 37.95 L 7.45 37.95 Q 0.1 37.8 0 33.15 L 0 35.15 Q 0.1 39.8 7.45 39.95 L 56.55 39.95 Z " fill="rgb(255,255,255)" fill-opacity="0.102"/><path d=" M 64 35.15 Q 63.9 39.8 56.55 39.95 L 7.45 39.95 Q 0.1 39.8 0 35.15 L 0 56.4 Q 0.05 57.65 0.3 58.7 Q 1.2 62.75 5.3 63.7 Q 6.3 63.9 7.45 63.95 L 56.6 63.95 Q 57.8 63.9 58.75 63.7 Q 62.8 62.75 63.75 58.7 Q 63.95 57.65 64 56.4 L 64 35.15 L 64 35.15 Z " fill="rgb(0,0,0)" fill-opacity="0.102"/></g></g></svg>