<?xml version="1.0" standalone="no"?><!-- Generator: Gravit.io --><svg xmlns="http://www.w3.org/2000/svg" xmlns:xlink="http://www.w3.org/1999/xlink" style="isolation:isolate" viewBox="0 0 64 64" width="64" height="64"><defs><clipPath id="_clipPath_Es0KF6NTHheFormT8BjQvtE3RxMd9lKb"><rect width="64" height="64"/></clipPath></defs><g clip-path="url(#_clipPath_Es0KF6NTHheFormT8BjQvtE3RxMd9lKb)"><g id="de"><path d=" M 58 52.05 L 58 38 L 54 38 L 54 52.05 Q 54 54 52.05 54 L 38 54 L 38 58 L 52.05 58 Q 58 58 58 52.05 Z  M 58 26 L 58 11.95 Q 58 6 52.05 6 L 38 6 L 38 10 L 52.05 10 Q 54 10 54 11.95 L 54 26 L 58 26 Z  M 10 38 L 6 38 L 6 52.05 Q 6 58 11.95 58 L 26 58 L 26 54 L 11.95 54 Q 10 54 10 52.05 L 10 38 Z  M 10 26 L 10 11.95 Q 10 10 11.95 10 L 26 10 L 26 6 L 11.95 6 Q 6 6 6 11.95 L 6 26 L 10 26 Z " fill="rgb(152,103,53)"/><path d=" M 60 52.05 L 60 38 L 58 38 L 58 52.05 Q 58 58 52.05 58 L 38 58 L 38 60 L 52.05 60 Q 60 60 60 52.05 Z  M 52.05 4 L 38 4 L 38 6 L 52.05 6 Q 58 6 58 11.95 L 58 26 L 60 26 L 60 11.95 Q 60 4 52.05 4 Z  M 6 52.05 L 6 38 L 4 38 L 4 52.05 Q 4 60 11.95 60 L 26 60 L 26 58 L 11.95 58 Q 6 58 6 52.05 Z  M 6 26 L 6 11.95 Q 6 6 11.95 6 L 26 6 L 26 4 L 11.95 4 Q 4 4 4 11.95 L 4 26 L 6 26 Z " fill="rgb(217,148,78)"/></g></g></svg>