<?xml version="1.0" standalone="no"?><!-- Generator: Gravit.io --><svg xmlns="http://www.w3.org/2000/svg" xmlns:xlink="http://www.w3.org/1999/xlink" style="isolation:isolate" viewBox="0 0 64 64" width="64" height="64"><defs><clipPath id="_clipPath_fWmh2L6ln31hzKJtwTb4roGBoT7yHhZd"><rect width="64" height="64"/></clipPath></defs><g clip-path="url(#_clipPath_fWmh2L6ln31hzKJtwTb4roGBoT7yHhZd)"><g id="Group"><g id="cf"><path d=" M 7.25 0.025 Q 6.2 0.075 5.3 0.275 Q 1.2 1.175 0.3 5.275 Q 0.05 6.325 0 7.575 L 0 56.425 Q 0.05 57.675 0.3 58.725 Q 1.2 62.775 5.3 63.725 Q 6.3 63.925 7.45 63.975 L 56.6 63.975 Q 57.8 63.925 58.75 63.725 Q 62.8 62.775 63.75 58.725 Q 63.95 57.675 64 56.425 L 64 7.575 Q 63.95 6.275 63.75 5.275 Q 63.65 4.975 63.6 4.725 Q 63.2 3.475 62.5 2.525 Q 61.2 0.825 58.75 0.275 Q 57.85 0.075 56.8 0.025 L 7.25 0.025 M 5.75 2.225 Q 6.45 2.075 7.25 2.025 L 56.7 2.025 Q 57.55 2.075 58.3 2.225 Q 60 2.625 60.9 3.775 L 60.9 3.725 Q 61.4 4.375 61.7 5.275 Q 61.75 5.525 61.85 5.825 Q 61.95 6.625 62 7.675 L 62 56.375 Q 61.95 57.425 61.8 58.375 L 61.8 58.275 Q 61.15 61.125 58.3 61.775 L 58.35 61.775 Q 57.55 61.925 56.6 61.975 L 7.55 61.975 Q 6.55 61.925 5.7 61.775 L 5.75 61.775 Q 2.9 61.125 2.25 58.325 L 2.25 58.275 Q 2.05 57.425 2 56.425 L 2 7.675 Q 2.05 6.625 2.25 5.775 L 2.25 5.725 Q 2.9 2.875 5.75 2.225 L 5.75 2.225 Z " fill="rgb(51,226,125)"/><path d=" M 7.25 2.025 Q 6.45 2.075 5.75 2.225 Q 2.9 2.875 2.25 5.725 L 2.25 5.775 Q 2.05 6.625 2 7.675 L 2 56.425 Q 2.05 57.425 2.25 58.275 L 2.25 58.325 Q 2.9 61.125 5.75 61.775 L 5.7 61.775 Q 6.55 61.925 7.55 61.975 L 56.6 61.975 Q 57.55 61.925 58.35 61.775 L 58.3 61.775 Q 61.15 61.125 61.8 58.275 L 61.8 58.375 Q 61.95 57.425 62 56.375 L 62 7.675 Q 61.95 6.625 61.85 5.825 Q 61.75 5.525 61.7 5.275 Q 61.4 4.375 60.9 3.725 L 60.9 3.775 Q 60 2.625 58.3 2.225 Q 57.55 2.075 56.7 2.025 L 7.25 2.025 M 10 12.325 L 10 5.975 L 54 5.975 L 54 33.975 L 10 33.975 L 10 12.325 M 54 42.975 L 54 57.975 L 10 57.975 L 10 42.975 L 54 42.975 Z " fill="rgb(46,204,113)"/><path d=" M 54 57.975 L 54 42.975 L 10 42.975 L 10 57.975 L 54 57.975 Z  M 10 12.325 L 10 27.625 L 19.5 21.575 L 29.5 27.925 L 20 33.975 L 44 33.975 L 34.5 27.925 L 44.5 21.575 L 54 27.625 L 54 12.325 L 44.5 18.375 L 34.5 12.025 L 44 5.975 L 20 5.975 L 29.5 12.025 L 19.5 18.375 L 10 12.325 Z  M 32 26.325 L 22 19.975 L 32 13.625 L 42 19.975 L 32 26.325 Z " fill="rgb(33,152,83)"/><path d=" M 44.5 21.575 L 34.5 27.925 L 44 33.975 L 54 33.975 L 54 27.625 L 44.5 21.575 M 44 5.975 L 34.5 12.025 L 44.5 18.375 L 54 12.325 L 54 5.975 L 44 5.975 Z  M 29.5 27.925 L 19.5 21.575 L 10 27.625 L 10 33.975 L 20 33.975 L 29.5 27.925 Z  M 22 19.975 L 32 26.325 L 42 19.975 L 32 13.625 L 22 19.975 Z  M 10 5.975 L 10 12.325 L 19.5 18.375 L 29.5 12.025 L 20 5.975 L 10 5.975 Z " fill="rgb(40,180,98)"/></g><g id="cg"><path d=" M 64 35.175 L 64 33.175 Q 63.9 37.825 56.55 37.975 L 7.45 37.975 Q 0.1 37.825 0 33.175 L 0 35.175 Q 0.1 39.825 7.45 39.975 L 56.55 39.975 Q 63.9 39.825 64 35.175 Z " fill="rgb(255,255,255)" fill-opacity="0.102"/><path d=" M 64 56.425 L 64 35.175 Q 63.9 39.825 56.55 39.975 L 7.45 39.975 Q 0.1 39.825 0 35.175 L 0 56.425 Q 0.05 57.675 0.3 58.725 Q 1.2 62.775 5.3 63.725 Q 6.3 63.925 7.45 63.975 L 56.6 63.975 Q 57.8 63.925 58.75 63.725 Q 62.8 62.775 63.75 58.725 Q 63.95 57.675 64 56.425 L 64 56.425 Z " fill="rgb(0,0,0)" fill-opacity="0.102"/></g></g></g></svg>