<?xml version="1.0" standalone="no"?><!-- Generator: Gravit.io --><svg xmlns="http://www.w3.org/2000/svg" xmlns:xlink="http://www.w3.org/1999/xlink" style="isolation:isolate" viewBox="0 0 64 64" width="64" height="64"><defs><clipPath id="_clipPath_waezbqRNY8k4FBDEtfDYyPWW3V2moSL4"><rect width="64" height="64"/></clipPath></defs><g clip-path="url(#_clipPath_waezbqRNY8k4FBDEtfDYyPWW3V2moSL4)"><g id="floorBrown"><g id="cP"><path d=" M 62.5 49.5 Q 61.7 49.5 60.7 50.2 Q 60.1 50.65 58.65 52.05 Q 57.3 53.5 56.85 54.05 Q 56.1 55.1 56.15 55.85 Q 56.1 56.65 56.85 57.65 Q 57.3 58.25 58.65 59.7 Q 60.1 61.1 60.7 61.5 Q 61.7 62.25 62.5 62.2 Q 63.15 62.25 64 61.7 L 64 50 Q 63.15 49.5 62.5 49.5 Z  M 63.95 3.6 Q 63.7 3.8 63.55 4.05 Q 62.4 5.4 62.35 6.5 Q 62.2 7.65 63.2 9.15 Q 63.45 9.6 63.95 10.25 L 64 10.3 L 64 3.55 Q 63.95 3.55 63.95 3.6 Z  M 5.5 62.85 Q 4.95 63.2 4 64 L 11.4 64 Q 10.95 63.5 10.65 63.25 Q 9.25 62.05 8.15 62.05 Q 7 61.9 5.5 62.85 M 2.35 52.05 Q 0.85 50.65 0.3 50.2 L 0 50 L 0 61.75 Q 0.15 61.65 0.3 61.5 Q 0.85 61.1 2.35 59.7 Q 3.75 58.2 4.15 57.65 Q 4.9 56.65 4.85 55.85 Q 4.9 55.1 4.15 54.05 Q 3.75 53.5 2.35 52.05 M 13.4 2.05 Q 12.2 0.75 11.4 0 L 4 0 Q 3.3 0.5 2.35 1.25 Q 0.75 2.7 0 3.55 L 0 10.3 Q 0.6 11.1 1.55 12.3 Q 3.5 14.45 4.3 15.15 Q 5.65 16.3 6.8 16.35 Q 7.9 16.45 9.45 15.5 Q 10.4 14.9 12.55 13.1 Q 14.7 11.2 15.4 10.35 Q 16.55 9 16.6 7.85 Q 16.75 6.75 15.8 5.2 Q 15.25 4.3 13.4 2.05 M 49.7 37.05 Q 48.6 37 47.15 38.05 Q 46.25 38.75 44.2 40.7 Q 42.25 42.75 41.6 43.65 Q 40.5 45.1 40.55 46.2 Q 40.5 47.35 41.6 48.8 Q 42.25 49.7 44.2 51.75 Q 46.25 53.7 47.15 54.4 Q 48.6 55.45 49.7 55.4 Q 50.85 55.45 52.3 54.4 Q 53.15 53.75 55.25 51.75 Q 57.25 49.7 57.9 48.8 Q 58.95 47.35 58.9 46.2 Q 58.95 45.1 57.9 43.65 Q 57.25 42.75 55.25 40.7 Q 53.15 38.7 52.3 38.05 Q 50.85 37 49.7 37.05 Z  M 46.7 11.5 Q 46.3 10.95 44.9 9.45 Q 43.45 8.05 42.85 7.65 Q 41.85 6.9 41.05 6.9 Q 40.3 6.9 39.3 7.65 Q 38.7 8.05 37.25 9.45 Q 35.85 10.9 35.4 11.5 Q 34.7 12.5 34.7 13.25 Q 34.7 14.05 35.4 15.05 Q 35.85 15.65 37.25 17.1 Q 38.7 18.5 39.3 18.95 Q 40.3 19.65 41.05 19.65 Q 41.85 19.65 42.85 18.95 Q 43.45 18.5 44.9 17.1 Q 46.3 15.65 46.7 15.05 Q 47.45 14.05 47.4 13.25 Q 47.45 12.5 46.7 11.5 Z " fill="rgb(189,128,66)"/><path d=" M 47.1 62.45 Q 46.25 63.3 45.65 64 L 59.6 64 Q 58.95 63.3 58.15 62.45 Q 56.05 60.45 55.2 59.85 Q 53.75 58.8 52.6 58.8 Q 51.5 58.8 50.05 59.85 Q 49.15 60.5 47.1 62.45 M 32.25 52.55 Q 30.2 51.05 28.6 51.1 Q 27.05 51.05 25 52.55 Q 23.8 53.45 20.85 56.25 Q 18.05 59.2 17.15 60.45 Q 15.65 62.45 15.7 64 L 41.55 64 Q 41.6 62.45 40.1 60.45 Q 39.2 59.2 36.4 56.25 Q 33.45 53.45 32.25 52.55 M 40.1 3.65 Q 41.6 1.6 41.55 0 L 15.7 0 Q 15.65 1.6 17.15 3.65 Q 18.05 4.9 20.85 7.8 Q 23.8 10.6 25 11.5 Q 27.05 13 28.6 12.95 Q 30.2 13 32.25 11.5 Q 33.45 10.6 36.4 7.8 Q 39.2 4.85 40.1 3.65 M 63.95 13.55 Q 61.9 12 60.25 12.05 Q 58.6 12 56.5 13.55 Q 55.2 14.5 52.15 17.4 Q 49.25 20.45 48.3 21.75 Q 46.75 23.9 46.8 25.55 Q 46.75 27.2 48.3 29.3 Q 49.25 30.6 52.15 33.65 Q 55.2 36.55 56.5 37.5 Q 58.6 39.05 60.25 39 Q 61.9 39.05 64 37.55 L 64 13.55 L 63.95 13.55 Z  M 61.8 4 Q 61.8 2.85 60.75 1.4 Q 60.4 0.9 59.55 0 L 45.7 0 Q 44.85 0.9 44.45 1.4 Q 43.4 2.85 43.45 4 Q 43.4 5.1 44.45 6.55 Q 45.1 7.45 47.1 9.5 Q 49.15 11.5 50.05 12.15 Q 51.5 13.2 52.6 13.15 Q 53.75 13.2 55.2 12.15 Q 56.05 11.5 58.15 9.5 Q 60.1 7.45 60.75 6.55 Q 61.8 5.1 61.8 4 Z  M 0.05 13.55 L 0 13.55 L 0 37.55 L 0.05 37.5 Q 1.25 36.6 4.35 33.65 Q 7.25 30.6 8.2 29.3 Q 9.75 27.2 9.7 25.55 Q 9.75 23.9 8.2 21.75 Q 7.25 20.45 4.35 17.4 Q 1.25 14.45 0.05 13.55 M 29 19.45 Q 27.65 20.3 24.45 23.05 Q 21.35 25.9 20.35 27.15 Q 18.65 29.2 18.6 30.85 Q 18.45 32.45 19.9 34.7 Q 20.75 36 23.5 39.25 Q 26.35 42.35 27.6 43.35 Q 29.65 45 31.25 45.05 Q 32.9 45.2 35.15 43.8 Q 36.45 42.9 39.7 40.2 Q 42.75 37.35 43.8 36.1 Q 45.5 34.05 45.55 32.4 Q 45.7 30.75 44.25 28.55 Q 43.4 27.25 40.65 24 Q 37.8 20.9 36.55 19.9 Q 34.5 18.2 32.85 18.15 Q 31.2 18 29 19.45 M 7.45 38.75 Q 5.7 41.05 5.2 42 Q 4.3 43.55 4.45 44.65 Q 4.5 45.75 5.75 47.1 Q 6.45 47.9 8.65 49.75 Q 10.95 51.5 11.9 52 Q 13.45 52.9 14.55 52.75 Q 15.7 52.65 17 51.45 Q 17.8 50.7 19.65 48.5 Q 21.4 46.25 21.95 45.3 Q 22.85 43.75 22.65 42.6 Q 22.6 41.5 21.35 40.15 Q 20.6 39.35 18.45 37.55 Q 16.15 35.8 15.2 35.25 Q 13.65 34.35 12.55 34.5 Q 11.4 34.6 10.1 35.8 Q 9.3 36.55 7.45 38.75 M 13.2 15.65 Q 11.65 16.9 11.1 17.45 Q 10.25 18.35 10.15 19.1 Q 10 19.85 10.6 20.95 Q 10.95 21.6 12.1 23.25 Q 13.3 24.85 13.85 25.35 Q 14.75 26.25 15.5 26.3 Q 16.3 26.45 17.35 25.85 Q 18.05 25.5 19.65 24.35 Q 21.25 23.1 21.75 22.6 Q 22.65 21.7 22.7 20.95 Q 22.85 20.15 22.3 19.1 Q 21.95 18.45 20.8 16.8 Q 19.55 15.2 19 14.7 Q 18.1 13.8 17.35 13.7 Q 16.6 13.6 15.5 14.15 Q 14.85 14.5 13.2 15.65 L 13.2 15.65 Z " fill="rgb(177,120,62)"/><path d=" M 4 0 L 0 0 L 0 3.55 Q 0.75 2.7 2.35 1.25 Q 3.3 0.5 4 0 Z  M 11.4 0 Q 12.2 0.75 13.4 2.05 Q 15.25 4.3 15.8 5.2 Q 16.75 6.75 16.6 7.85 Q 16.55 9 15.4 10.35 Q 14.7 11.2 12.55 13.1 Q 10.4 14.9 9.45 15.5 Q 7.9 16.45 6.8 16.35 Q 5.65 16.3 4.3 15.15 Q 3.5 14.45 1.55 12.3 Q 0.6 11.1 0 10.3 L 0 13.55 L 0.05 13.55 Q 1.25 14.45 4.35 17.4 Q 7.25 20.45 8.2 21.75 Q 9.75 23.9 9.7 25.55 Q 9.75 27.2 8.2 29.3 Q 7.25 30.6 4.35 33.65 Q 1.25 36.6 0.05 37.5 L 0 37.55 L 0 50 L 0.3 50.2 Q 0.85 50.65 2.35 52.05 Q 3.75 53.5 4.15 54.05 Q 4.9 55.1 4.85 55.85 Q 4.9 56.65 4.15 57.65 Q 3.75 58.2 2.35 59.7 Q 0.85 61.1 0.3 61.5 Q 0.15 61.65 0 61.75 L 0 64 L 4 64 Q 4.95 63.2 5.5 62.85 Q 7 61.9 8.15 62.05 Q 9.25 62.05 10.65 63.25 Q 10.95 63.5 11.4 64 L 15.7 64 Q 15.65 62.45 17.15 60.45 Q 18.05 59.2 20.85 56.25 Q 23.8 53.45 25 52.55 Q 27.05 51.05 28.6 51.1 Q 30.2 51.05 32.25 52.55 Q 33.45 53.45 36.4 56.25 Q 39.2 59.2 40.1 60.45 Q 41.6 62.45 41.55 64 L 45.65 64 Q 46.25 63.3 47.1 62.45 Q 49.15 60.5 50.05 59.85 Q 51.5 58.8 52.6 58.8 Q 53.75 58.8 55.2 59.85 Q 56.05 60.45 58.15 62.45 Q 58.95 63.3 59.6 64 L 64 64 L 64 61.7 Q 63.15 62.25 62.5 62.2 Q 61.7 62.25 60.7 61.5 Q 60.1 61.1 58.65 59.7 Q 57.3 58.25 56.85 57.65 Q 56.1 56.65 56.15 55.85 Q 56.1 55.1 56.85 54.05 Q 57.3 53.5 58.65 52.05 Q 60.1 50.65 60.7 50.2 Q 61.7 49.5 62.5 49.5 Q 63.15 49.5 64 50 L 64 37.55 Q 61.9 39.05 60.25 39 Q 58.6 39.05 56.5 37.5 Q 55.2 36.55 52.15 33.65 Q 49.25 30.6 48.3 29.3 Q 46.75 27.2 46.8 25.55 Q 46.75 23.9 48.3 21.75 Q 49.25 20.45 52.15 17.4 Q 55.2 14.5 56.5 13.55 Q 58.6 12 60.25 12.05 Q 61.9 12 63.95 13.55 L 64 13.55 L 64 10.3 L 63.95 10.25 Q 63.45 9.6 63.2 9.15 Q 62.2 7.65 62.35 6.5 Q 62.4 5.4 63.55 4.05 Q 63.7 3.8 63.95 3.6 Q 63.95 3.55 64 3.55 L 64 0 L 59.55 0 Q 60.4 0.9 60.75 1.4 Q 61.8 2.85 61.8 4 Q 61.8 5.1 60.75 6.55 Q 60.1 7.45 58.15 9.5 Q 56.05 11.5 55.2 12.15 Q 53.75 13.2 52.6 13.15 Q 51.5 13.2 50.05 12.15 Q 49.15 11.5 47.1 9.5 Q 45.1 7.45 44.45 6.55 Q 43.4 5.1 43.45 4 Q 43.4 2.85 44.45 1.4 Q 44.85 0.9 45.7 0 L 41.55 0 Q 41.6 1.6 40.1 3.65 Q 39.2 4.85 36.4 7.8 Q 33.45 10.6 32.25 11.5 Q 30.2 13 28.6 12.95 Q 27.05 13 25 11.5 Q 23.8 10.6 20.85 7.8 Q 18.05 4.9 17.15 3.65 Q 15.65 1.6 15.7 0 L 11.4 0 Z  M 11.1 17.45 Q 11.65 16.9 13.2 15.65 Q 14.85 14.5 15.5 14.15 Q 16.6 13.6 17.35 13.7 Q 18.1 13.8 19 14.7 Q 19.55 15.2 20.8 16.8 Q 21.95 18.45 22.3 19.1 Q 22.85 20.15 22.7 20.95 Q 22.65 21.7 21.75 22.6 Q 21.25 23.1 19.65 24.35 Q 18.05 25.5 17.35 25.85 Q 16.3 26.45 15.5 26.3 Q 14.75 26.25 13.85 25.35 Q 13.3 24.85 12.1 23.25 Q 10.95 21.6 10.6 20.95 Q 10 19.85 10.15 19.1 Q 10.25 18.35 11.1 17.45 M 5.2 42 Q 5.7 41.05 7.45 38.75 Q 9.3 36.55 10.1 35.8 Q 11.4 34.6 12.55 34.5 Q 13.65 34.35 15.2 35.25 Q 16.15 35.8 18.45 37.55 Q 20.6 39.35 21.35 40.15 Q 22.6 41.5 22.65 42.6 Q 22.85 43.75 21.95 45.3 Q 21.4 46.25 19.65 48.5 Q 17.8 50.7 17 51.45 Q 15.7 52.65 14.55 52.75 Q 13.45 52.9 11.9 52 Q 10.95 51.5 8.65 49.75 Q 6.45 47.9 5.75 47.1 Q 4.5 45.75 4.45 44.65 Q 4.3 43.55 5.2 42 M 24.45 23.05 Q 27.65 20.3 29 19.45 Q 31.2 18 32.85 18.15 Q 34.5 18.2 36.55 19.9 Q 37.8 20.9 40.65 24 Q 43.4 27.25 44.25 28.55 Q 45.7 30.75 45.55 32.4 Q 45.5 34.05 43.8 36.1 Q 42.75 37.35 39.7 40.2 Q 36.45 42.9 35.15 43.8 Q 32.9 45.2 31.25 45.05 Q 29.65 45 27.6 43.35 Q 26.35 42.35 23.5 39.25 Q 20.75 36 19.9 34.7 Q 18.45 32.45 18.6 30.85 Q 18.65 29.2 20.35 27.15 Q 21.35 25.9 24.45 23.05 M 44.9 9.45 Q 46.3 10.95 46.7 11.5 Q 47.45 12.5 47.4 13.25 Q 47.45 14.05 46.7 15.05 Q 46.3 15.65 44.9 17.1 Q 43.45 18.5 42.85 18.95 Q 41.85 19.65 41.05 19.65 Q 40.3 19.65 39.3 18.95 Q 38.7 18.5 37.25 17.1 Q 35.85 15.65 35.4 15.05 Q 34.7 14.05 34.7 13.25 Q 34.7 12.5 35.4 11.5 Q 35.85 10.9 37.25 9.45 Q 38.7 8.05 39.3 7.65 Q 40.3 6.9 41.05 6.9 Q 41.85 6.9 42.85 7.65 Q 43.45 8.05 44.9 9.45 Z  M 47.15 38.05 Q 48.6 37 49.7 37.05 Q 50.85 37 52.3 38.05 Q 53.15 38.7 55.25 40.7 Q 57.25 42.75 57.9 43.65 Q 58.95 45.1 58.9 46.2 Q 58.95 47.35 57.9 48.8 Q 57.25 49.7 55.25 51.75 Q 53.15 53.75 52.3 54.4 Q 50.85 55.45 49.7 55.4 Q 48.6 55.45 47.15 54.4 Q 46.25 53.7 44.2 51.75 Q 42.25 49.7 41.6 48.8 Q 40.5 47.35 40.55 46.2 Q 40.5 45.1 41.6 43.65 Q 42.25 42.75 44.2 40.7 Q 46.25 38.75 47.15 38.05 Z " fill="rgb(170,115,60)"/></g></g></g></svg>