<?xml version="1.0" standalone="no"?><!-- Generator: Gravit.io --><svg xmlns="http://www.w3.org/2000/svg" xmlns:xlink="http://www.w3.org/1999/xlink" style="isolation:isolate" viewBox="0 0 311.688 101.223" width="311.688" height="101.223"><defs><clipPath id="_clipPath_3KB4rpJ91G30z6VJFGkkmkwKBYiUkfG6"><rect width="311.688" height="101.223"/></clipPath></defs><g clip-path="url(#_clipPath_3KB4rpJ91G30z6VJFGkkmkwKBYiUkfG6)"><g id="g3118-8-4"><g id="Group"><path d=" M 13.8 0.268 C 6.754 0.342 0.696 0.511 0.337 0.645 C -0.171 0.834 -0.117 1.148 0.583 2.064 C 1.818 3.679 2.322 4.424 5.624 9.52 C 7.207 11.963 9.694 15.202 11.151 16.717 C 12.608 18.233 14.575 20.504 15.524 21.765 C 16.472 23.025 17.612 24.173 18.057 24.314 C 18.501 24.456 19.202 25.267 19.614 26.118 C 20.51 27.967 20.113 29.338 17.979 31.768 C 17.181 32.677 16.162 34.139 15.716 35.016 C 14.623 37.162 3.792 53.568 2.546 54.963 L 1.557 56.072 L 4.968 56.057 C 6.845 56.048 11.706 55.716 15.77 55.317 C 19.835 54.919 26.411 54.328 30.383 54.005 L 37.605 53.418 L 37.894 50.926 C 38.052 49.556 38.406 42.227 38.679 34.64 C 38.953 27.052 39.3 20.107 39.45 19.206 C 39.663 17.934 41.023 16.285 45.544 11.816 C 48.746 8.652 52.365 4.823 53.588 3.307 L 55.812 0.55 L 46.181 0.228 C 40.885 0.05 34.314 -0.043 31.58 0.02 C 28.846 0.083 20.845 0.194 13.8 0.268 L 13.8 0.268 Z  M 58.27 4.94 C 57.095 6.715 49.883 13.985 48.657 14.63 C 46.457 15.788 47.559 16.164 53.154 16.164 L 58.759 16.164 L 58.991 10.128 C 59.119 6.809 59.176 4.031 59.119 3.954 C 59.061 3.878 58.679 4.322 58.27 4.94 Z  M 68.061 19.465 C 67.952 19.574 62.904 19.818 56.843 20.007 L 45.824 20.352 L 45.225 32.915 C 44.896 39.825 44.487 53.273 44.317 62.798 C 44.022 79.343 44.049 80.131 44.916 80.403 C 45.416 80.56 49.261 80.963 53.461 81.299 C 61.8 81.964 65.694 81.969 189.443 81.445 L 268.027 81.113 L 267.959 70.193 C 267.915 63.115 268.148 57.195 268.622 53.362 C 269.083 49.639 269.382 42.431 269.429 33.901 L 269.505 20.352 L 251.276 20.437 C 241.25 20.484 228.279 20.558 222.453 20.602 C 216.627 20.646 205.431 20.497 197.573 20.271 C 189.714 20.044 177.409 20.032 170.228 20.243 C 143.47 21.029 122.993 21.327 117.018 21.018 C 95.022 19.877 68.49 19.036 68.061 19.465 L 68.061 19.465 Z  M 297.342 45.772 C 294.497 45.982 290.063 46.392 287.488 46.684 C 284.914 46.975 280.779 47.352 278.299 47.52 L 273.79 47.826 L 273.495 49.301 C 273.333 50.112 273.2 52.91 273.199 55.518 C 273.199 58.126 272.973 65.027 272.699 70.853 C 272.178 81.916 271.521 85.319 269.8 85.864 C 268.779 86.189 256.863 98.205 256.058 99.722 C 255.514 100.748 255.566 100.756 265.131 101.087 C 270.422 101.27 283.049 101.269 293.191 101.082 C 313.699 100.708 313.155 100.823 310.146 97.529 C 309.33 96.635 307.773 94.424 306.687 92.615 C 304.792 89.461 294.073 76.763 293.305 76.763 C 292.777 76.763 291.429 74.027 291.435 72.969 C 291.44 72.482 292.158 71.15 293.036 70.011 C 293.914 68.872 295.63 66.254 296.85 64.195 C 298.069 62.135 299.564 59.742 300.172 58.876 C 300.78 58.01 302.111 56.024 303.128 54.461 C 304.146 52.899 306.024 50.183 307.302 48.426 L 309.626 45.231 L 306.071 45.31 C 304.115 45.353 300.188 45.56 297.342 45.77 L 297.342 45.772 Z  M 252.507 88.521 C 252.507 90.651 252.364 93.478 252.188 94.803 L 251.869 97.212 L 254.775 94.046 C 259.532 88.863 261.324 87.164 262.885 86.356 C 263.699 85.936 264.233 85.379 264.073 85.12 C 263.912 84.86 261.245 84.648 258.144 84.648 L 252.507 84.648 L 252.507 88.521 Z " fill="rgb(255,222,179)"/></g></g></g></svg>