<?xml version="1.0" standalone="no"?><!-- Generator: Gravit.io --><svg xmlns="http://www.w3.org/2000/svg" xmlns:xlink="http://www.w3.org/1999/xlink" style="isolation:isolate" viewBox="0 0 64 64" width="64" height="64"><defs><clipPath id="_clipPath_cKglDg6VhxD9DaTH0B4bnyRdfFu6wFok"><rect width="64" height="64"/></clipPath></defs><g clip-path="url(#_clipPath_cKglDg6VhxD9DaTH0B4bnyRdfFu6wFok)"><g id="wall3dRed2"><g id="cY"><path d=" M 15 62 L 15 64 L 17 64 L 17 62 L 15 62 Z  M 49 64 L 49 62 L 47 62 L 47 64 L 49 64 Z  M 2 56.3 Q 2.15 62 7.95 62 L 15 62 L 15 51 L 2 51 L 2 56.3 Z  M 2 49 L 0 49 L 0 51 L 2 51 L 2 49 Z  M 2 35 L 2 33 L 0 33 L 0 35 L 2 35 Z  M 2 17 L 0 17 L 0 19 L 2 19 L 2 17 Z  M 47 51 L 17 51 L 17 62 L 47 62 L 47 51 Z  M 17 19 L 17 33 L 47 33 L 47 19 L 17 19 Z  M 15 33 L 15 19 L 2 19 L 2 33 L 15 33 Z  M 31 49 L 31 35 L 2 35 L 2 49 L 31 49 Z  M 56.05 62 Q 61.85 62 62 56.3 L 62 51 L 49 51 L 49 62 L 56.05 62 Z  M 62 33 L 62 19 L 49 19 L 49 33 L 62 33 Z  M 62 49 L 62 35 L 33 35 L 33 49 L 62 49 Z  M 62 49 L 62 51 L 64 51 L 64 49 L 62 49 Z  M 64 35 L 64 33 L 62 33 L 62 35 L 64 35 Z  M 64 17 L 62 17 L 62 19 L 64 19 L 64 17 Z  M 56.05 4 L 33 4 L 33 17 L 62 17 L 62 9.95 Q 62 4 56.05 4 Z  M 31 4 L 7.95 4 Q 2 4 2 9.95 L 2 17 L 31 17 L 31 4 Z  M 33 2 L 31 2 L 31 4 L 33 4 L 33 2 Z " fill="rgb(205,67,52)"/><path d=" M 47 64 L 47 62 L 17 62 L 17 64 L 47 64 Z  M 2 51 L 0 51 L 0 56.55 Q 0.25 63.75 7.45 64 L 15 64 L 15 62 L 7.95 62 Q 2.15 62 2 56.3 L 2 51 Z  M 2 35 L 0 35 L 0 49 L 2 49 L 2 35 Z  M 2 19 L 0 19 L 0 33 L 2 33 L 2 19 Z  M 64 35 L 62 35 L 62 49 L 64 49 L 64 35 Z  M 64 51 L 62 51 L 62 56.3 Q 61.85 62 56.05 62 L 49 62 L 49 64 L 56.55 64 Q 63.75 63.75 64 56.55 L 64 51 Z  M 64 19 L 62 19 L 62 33 L 64 33 L 64 19 Z  M 33 2 L 33 4 L 56.05 4 Q 62 4 62 9.95 L 62 17 L 64 17 L 64 9.45 Q 63.75 2.25 56.55 2 L 33 2 Z  M 31 4 L 31 2 L 7.45 2 Q 0.25 2.25 0 9.45 L 0 17 L 2 17 L 2 9.95 Q 2 4 7.95 4 L 31 4 Z " fill="rgb(255,83,66)"/><path d=" M 49 51 L 47 51 L 47 62 L 49 62 L 49 51 Z  M 17 51 L 15 51 L 15 62 L 17 62 L 17 51 Z  M 31 35 L 31 49 L 33 49 L 33 35 L 31 35 Z  M 17 19 L 15 19 L 15 33 L 17 33 L 17 19 Z  M 49 19 L 47 19 L 47 33 L 49 33 L 49 19 Z  M 33 4 L 31 4 L 31 17 L 33 17 L 33 4 Z " fill="rgb(187,60,47)"/><path d=" M 62 51 L 62 49 L 2 49 L 2 51 L 62 51 Z  M 62 35 L 62 33 L 2 33 L 2 35 L 62 35 Z  M 62 19 L 62 17 L 2 17 L 2 19 L 62 19 Z " fill="rgb(173,56,43)"/></g><g id="cZ"><path d=" M 5.3 0.25 Q 1.2 1.15 0.3 5.25 Q 0.05 6.3 0 7.55 L 0 35.15 Q 0.05 37.55 2 38.75 Q 3.85 39.9 7.45 39.95 L 56.55 39.95 Q 60.15 39.9 62 38.75 Q 63.95 37.55 64 35.15 L 64 7.55 Q 63.95 6.25 63.75 5.25 Q 63.65 4.95 63.6 4.7 Q 63.2 3.45 62.5 2.5 Q 61.2 0.8 58.75 0.25 Q 57.85 0.05 56.8 0 L 7.25 0 Q 6.2 0.05 5.3 0.25 M 2.25 5.75 L 2.25 5.7 Q 2.9 2.85 5.75 2.2 Q 6.45 2.05 7.25 2 L 56.7 2 Q 57.55 2.05 58.3 2.2 Q 60 2.6 60.9 3.75 L 60.9 3.7 Q 61.4 4.35 61.7 5.25 Q 61.75 5.5 61.85 5.8 Q 61.95 6.6 62 7.65 L 62 36.75 Q 60.15 37.9 56.55 37.95 L 7.45 37.95 Q 3.85 37.9 2 36.75 L 2 7.65 Q 2.05 6.6 2.25 5.75 L 2.25 5.75 Z " fill="rgb(255,83,66)"/><path d=" M 2.25 5.7 L 2.25 5.75 Q 2.05 6.6 2 7.65 L 2 36.75 Q 3.85 37.9 7.45 37.95 L 56.55 37.95 Q 60.15 37.9 62 36.75 L 62 7.65 Q 61.95 6.6 61.85 5.8 Q 61.75 5.5 61.7 5.25 Q 61.4 4.35 60.9 3.7 L 60.9 3.75 Q 60 2.6 58.3 2.2 Q 57.55 2.05 56.7 2 L 7.25 2 Q 6.45 2.05 5.75 2.2 Q 2.9 2.85 2.25 5.7 M 57.8 6.3 L 57.85 6.35 L 57.9 6.4 L 57.9 6.6 Q 57.95 7.15 58 7.85 L 58 33.85 Q 57.35 33.95 56.55 33.95 L 7.55 33.95 Q 6.7 33.95 6 33.85 L 6 7.85 Q 6.05 7.2 6.15 6.7 Q 6.15 6.6 6.2 6.5 Q 6.3 6.2 6.65 6.1 L 6.6 6.1 Q 7 6 7.5 6 L 56.5 6 L 57.4 6.1 Q 57.6 6.15 57.75 6.25 Q 57.8 6.25 57.8 6.3 M 57.85 6.4 L 57.85 6.35 L 57.85 6.4 Z " fill="rgb(231,76,60)"/><path d=" M 57.9 6.55 L 57.9 6.4 L 57.85 6.35 L 57.85 6.4 Q 57.898 6.468 57.9 6.55 Z " fill="rgb(203,66,52)"/><path d=" M 57.85 6.35 L 57.8 6.3 Q 57.8 6.25 57.75 6.25 Q 57.6 6.15 57.4 6.1 L 56.5 6 L 7.5 6 Q 7 6 6.6 6.1 L 6.65 6.1 Q 6.3 6.2 6.2 6.5 Q 6.15 6.6 6.15 6.7 Q 6.05 7.2 6 7.85 L 6 33.85 Q 6.7 33.95 7.55 33.95 L 56.55 33.95 Q 57.35 33.95 58 33.85 L 58 7.85 Q 57.95 7.15 57.9 6.6 L 57.9 6.55 Q 57.898 6.468 57.85 6.4 L 57.85 6.35 L 57.85 6.35 Z " fill="rgb(198,64,50)"/></g></g></g></svg>