<?xml version="1.0" standalone="no"?><!-- Generator: Gravit.io --><svg xmlns="http://www.w3.org/2000/svg" xmlns:xlink="http://www.w3.org/1999/xlink" style="isolation:isolate" viewBox="0 0 64 64" width="64" height="64"><defs><clipPath id="_clipPath_NRbgxbSK295LOF4VHVGLoU1Oc49dsZKZ"><rect width="64" height="64"/></clipPath></defs><g clip-path="url(#_clipPath_NRbgxbSK295LOF4VHVGLoU1Oc49dsZKZ)"><g id="Group"><path d=" M 19.1 5.981 Q 12.95 6.831 12.15 11.831 Q 12 12.181 12 12.581 L 12 22.531 Q 11.95 24.381 12.85 25.481 Q 11.85 25.831 11 26.581 L 10.95 26.631 Q 8.95 28.431 9 30.881 L 9 31.031 Q 9 33.531 10.95 35.181 Q 12.15 36.381 13.7 36.781 Q 13.7 36.828 13.75 36.881 L 13.7 36.831 Q 13.75 37.381 13.9 37.831 Q 13.05 38.281 12.35 39.031 Q 12.3 39.031 12.3 39.081 Q 9.95 41.331 10 44.381 Q 10 45.831 10.55 47.131 Q 10.45 48.381 10.85 49.831 L 10.85 49.881 Q 11.5 52.381 13.65 53.931 Q 13.7 53.981 13.8 54.031 L 14 54.131 Q 14 54.431 14.05 54.731 Q 14 56.581 16.75 57.881 L 16.7 57.881 L 16.9 57.981 Q 17 58.031 17.05 58.031 Q 17.6 58.281 18.3 58.481 Q 18.35 58.481 18.4 58.531 Q 20.1 58.981 22.2 58.981 Q 24.3 58.981 26 58.531 Q 26.05 58.481 26.15 58.481 Q 26.7 58.231 27.25 58.031 Q 27.3 58.031 27.4 57.981 Q 28.6 57.381 29.25 56.781 L 29.4 56.631 Q 30.1 55.781 30.3 54.981 Q 30.35 54.731 30.35 54.481 L 30.35 54.231 L 30.35 54.031 L 30.35 53.331 Q 31.1 53.231 32 53.231 Q 32.9 53.231 33.7 53.331 Q 33.65 53.681 33.65 54.031 Q 33.65 54.431 33.7 54.731 Q 33.65 56.581 36.4 57.881 L 36.35 57.881 Q 36.55 57.981 36.9 58.081 Q 37.35 58.281 37.9 58.481 Q 37.95 58.481 38.05 58.531 Q 39.75 58.981 41.85 58.981 Q 44 58.981 45.65 58.531 Q 45.7 58.481 45.8 58.481 L 46.9 58.081 Q 47 58.031 47.15 57.981 Q 48.25 57.381 48.9 56.781 L 49.05 56.631 Q 49.75 55.781 49.95 54.981 Q 50 54.731 50 54.481 L 50 54.231 L 50 54.131 Q 50.1 54.081 50.25 54.031 L 50.35 53.931 Q 52.5 52.381 53.2 49.881 L 53.2 49.831 Q 53.55 48.381 53.45 47.131 Q 54 45.831 54 44.381 Q 54.05 41.331 51.7 39.081 Q 51.7 39.031 51.65 39.031 Q 51 38.331 50.2 37.881 L 50.3 37.481 L 50.3 37.431 Q 50.35 37.231 50.4 37.081 Q 50.45 36.881 50.45 36.731 Q 51.85 36.331 53 35.281 Q 55.05 33.531 55 31.031 Q 55 28.381 53.05 26.631 L 53 26.581 Q 52.15 25.831 51.15 25.481 Q 52 24.381 52 22.531 L 52 12.581 Q 52 12.131 51.85 11.781 Q 51 6.831 44.95 6.031 Q 32 4.031 19.15 5.981 L 19.1 5.981 L 19.1 5.981 Z " fill="rgb(105,76,57)"/><g id="bj"><path d=" M 20.8 43.131 Q 20.5 42.981 20.25 42.881 Q 18.5 42.031 16.7 42.531 Q 14.35 43.181 13.2 45.131 Q 12.7 45.981 12.6 46.781 Q 12.4 47.981 12.75 49.331 Q 13.25 51.181 14.8 52.281 Q 15.05 52.431 15.35 52.581 Q 15.45 52.681 15.55 52.731 Q 16.7 53.331 18.2 52.431 Q 19.85 51.531 20.95 49.531 Q 22.1 47.631 22.1 45.681 Q 22.05 43.931 21 43.281 Q 20.95 43.231 20.9 43.231 L 20.8 43.131 L 20.8 43.131 Z " fill="rgb(255,224,177)"/><path d=" M 16.45 38.981 Q 14.85 39.281 13.75 40.431 Q 12 42.131 12 44.381 Q 12 45.681 12.6 46.781 Q 12.7 45.981 13.2 45.131 Q 14.35 43.181 16.7 42.531 Q 18.5 42.031 20.25 42.881 Q 20.5 42.981 20.8 43.131 Q 16.75 40.331 16.45 38.981 L 16.45 38.981 Z " fill="rgb(46,204,113)"/></g><g id="bk"><path d=" M 51.4 46.781 Q 51.25 45.981 50.8 45.131 Q 49.65 43.181 47.3 42.531 Q 45.5 42.031 43.75 42.881 Q 43.5 42.981 43.2 43.131 L 43.1 43.231 Q 43.05 43.231 43 43.281 Q 41.95 43.931 41.9 45.681 Q 41.9 47.631 43.05 49.531 Q 44.15 51.531 45.8 52.431 Q 47.3 53.331 48.45 52.731 Q 48.55 52.681 48.65 52.581 Q 48.95 52.431 49.2 52.281 Q 50.75 51.181 51.25 49.331 Q 51.6 47.981 51.4 46.781 L 51.4 46.781 Z " fill="rgb(255,224,177)"/><path d=" M 50.25 40.431 Q 49.15 39.281 47.55 38.981 Q 47.25 40.331 43.2 43.131 Q 43.5 42.981 43.75 42.881 Q 45.5 42.031 47.3 42.531 Q 49.65 43.181 50.8 45.131 Q 51.25 45.981 51.4 46.781 Q 52 45.681 52 44.381 Q 52 42.131 50.25 40.431 L 50.25 40.431 Z " fill="rgb(46,204,113)"/></g><path d=" M 22.2 48.981 Q 19.65 48.981 17.8 50.481 Q 16 51.931 16 54.031 Q 16 54.181 16.05 54.231 L 16.05 54.481 Q 16.15 55.381 17.6 56.081 L 17.8 56.181 Q 18.3 56.381 18.9 56.581 Q 20.4 56.981 22.2 56.981 Q 24 56.981 25.45 56.581 Q 26 56.381 26.5 56.181 Q 27.4 55.731 27.9 55.281 Q 28.25 54.881 28.35 54.481 L 28.35 54.231 L 28.35 54.031 Q 28.35 51.931 26.5 50.481 Q 24.75 48.981 22.2 48.981 L 22.2 48.981 Z " fill="rgb(51,51,51)"/><path d=" M 46.2 50.481 Q 44.4 48.981 41.85 48.981 Q 39.3 48.981 37.5 50.481 Q 35.65 51.931 35.65 54.031 Q 35.65 54.181 35.7 54.231 L 35.7 54.481 Q 35.8 55.381 37.25 56.081 Q 37.35 56.131 37.5 56.181 Q 38 56.381 38.55 56.581 Q 40.05 56.981 41.85 56.981 Q 43.7 56.981 45.1 56.581 L 46.2 56.181 Q 47.05 55.731 47.55 55.281 Q 47.9 54.881 48 54.481 L 48 54.231 L 48 54.031 Q 48 51.931 46.2 50.481 L 46.2 50.481 Z " fill="rgb(51,51,51)"/><g id="bn"><path d=" M 15.7 49.631 Q 15.75 50.081 15.85 50.381 Q 16 50.931 16.25 51.331 Q 17.25 52.981 19.75 52.981 L 25.8 52.981 Q 26 52.831 26.25 52.631 Q 28.6 51.231 32 51.231 Q 35.4 51.231 37.75 52.631 Q 37.95 52.831 38.2 52.981 L 44.25 52.981 Q 47.65 52.981 48.35 50.031 L 48.45 49.631 Q 48.45 49.481 48.5 49.281 Q 48.55 48.831 48.65 48.331 L 48.65 48.281 Q 49.15 40.731 45.45 37.431 L 18.6 37.431 Q 14.95 40.981 15.5 48.331 Q 15.55 48.981 15.7 49.631 M 20.45 49.831 Q 19.5 48.881 19.5 47.531 L 19.5 46.281 L 26 46.281 L 26 47.531 Q 26 48.881 25.05 49.831 Q 24.1 50.781 22.75 50.781 Q 21.4 50.781 20.45 49.831 Z  M 38.95 49.831 Q 38 48.881 38 47.531 L 38 46.281 L 44.5 46.281 L 44.5 47.531 Q 44.5 48.881 43.55 49.831 Q 42.6 50.781 41.25 50.781 Q 39.9 50.781 38.95 49.831 Z " fill="rgb(231,76,60)"/><path d=" M 38 47.531 Q 38 48.881 38.95 49.831 Q 39.9 50.781 41.25 50.781 Q 42.6 50.781 43.55 49.831 Q 44.5 48.881 44.5 47.531 L 44.5 46.281 L 38 46.281 L 38 47.531 Z  M 19.5 47.531 Q 19.5 48.881 20.45 49.831 Q 21.4 50.781 22.75 50.781 Q 24.1 50.781 25.05 49.831 Q 26 48.881 26 47.531 L 26 46.281 L 19.5 46.281 L 19.5 47.531 Z " fill="rgb(205,67,53)"/></g><path d=" M 51.7 28.081 Q 50.4 26.981 48.55 26.981 Q 46.7 26.981 45.4 28.081 Q 44.15 29.281 44.1 30.881 L 44.1 31.031 Q 44.15 32.681 45.4 33.731 Q 46.7 34.981 48.55 34.981 Q 50.4 34.981 51.7 33.731 Q 53 32.631 53 31.031 Q 53 29.281 51.7 28.081 Z  M 15.4 26.981 Q 13.6 26.981 12.3 28.081 Q 11 29.281 11 30.881 L 11 31.031 Q 11 32.681 12.3 33.731 Q 13.6 34.981 15.4 34.981 Q 17.25 34.981 18.55 33.731 Q 19.85 32.631 19.85 31.031 Q 19.85 29.281 18.55 28.081 Q 17.25 26.981 15.4 26.981 Z " fill="rgb(215,189,147)"/><g id="bp"><path d=" M 19.75 40.281 L 44.25 40.281 Q 47.65 40.281 48.35 37.031 Q 48.4 36.781 48.45 36.581 Q 48.45 36.381 48.5 36.181 Q 48.75 34.431 48.85 32.631 Q 32.05 37.081 15.2 32.631 Q 15.4 34.631 15.7 36.581 Q 15.75 37.031 15.85 37.381 Q 16 38.031 16.25 38.481 Q 17.25 40.281 19.75 40.281 L 19.75 40.281 Z " fill="rgb(255,224,177)"/><path d=" M 24.25 40.281 Q 24.8 41.481 26.25 42.431 Q 28.6 43.981 32 43.981 Q 35.4 43.981 37.75 42.431 Q 39.15 41.481 39.75 40.281 L 24.25 40.281 Z " fill="rgb(46,204,113)"/><path d=" M 19.75 15.981 Q 17.85 15.981 16.8 17.081 Q 15.9 18.031 15.7 19.731 Q 15.2 22.931 15.05 26.131 Q 15 27.681 15.05 29.281 Q 15.05 30.981 15.2 32.631 Q 32.05 37.081 48.85 32.631 Q 48.95 31.281 49 29.881 L 49 29.281 Q 49.05 27.381 48.95 25.481 Q 48.75 22.581 48.4 19.631 Q 48.15 18.031 47.3 17.081 Q 46.25 15.981 44.25 15.981 L 19.75 15.981 L 19.75 15.981 Z " fill="rgb(105,76,57)"/></g><g id="bq"><path d=" M 14 12.581 L 14 19.981 L 50 19.981 L 50 12.581 L 49.95 12.581 Q 49.4 8.631 44.65 7.981 Q 32 6.031 19.4 7.931 Q 14.55 8.631 14.05 12.581 L 14 12.581 L 14 12.581 Z " fill="rgb(40,177,98)"/><path d=" M 14 22.531 Q 13.95 24.981 16.65 24.981 L 47.35 24.981 Q 50 24.981 50 22.531 L 50 19.981 L 14 19.981 L 14 22.531 L 14 22.531 Z " fill="rgb(36,166,91)"/></g><path d=" M 28.5 19.181 Q 27.15 20.331 27 21.931 Q 27 22.181 27.15 22.431 Q 27.25 22.681 27.5 22.831 Q 27.75 22.981 28 22.981 L 36 22.981 Q 36.3 22.981 36.55 22.831 Q 36.8 22.681 36.9 22.431 Q 37.05 22.181 37 21.881 Q 36.85 20.331 35.45 19.181 Q 34.05 17.981 32 17.981 Q 30 17.981 28.5 19.181 L 28.5 19.181 Z " fill="rgb(105,76,57)"/></g></g></svg>