<?xml version="1.0" standalone="no"?><!-- Generator: Gravit.io --><svg xmlns="http://www.w3.org/2000/svg" xmlns:xlink="http://www.w3.org/1999/xlink" style="isolation:isolate" viewBox="0 0 64 64" width="64" height="64"><defs><clipPath id="_clipPath_LXei5R64ytl37apTsOCOJEGDAuntnCPq"><rect width="64" height="64"/></clipPath></defs><g clip-path="url(#_clipPath_LXei5R64ytl37apTsOCOJEGDAuntnCPq)"><g id="wallBrown"><g id="cR"><path d=" M 47 17 L 17 17 L 17 31 L 47 31 L 47 17 Z  M 56.05 62 Q 61.85 62 62 56.3 L 62 49 L 49 49 L 49 62 L 56.05 62 Z  M 47 62 L 47 64 L 49 64 L 49 62 L 47 62 Z  M 62 47 L 62 49 L 64 49 L 64 47 L 62 47 Z  M 64 33 L 64 31 L 62 31 L 62 33 L 64 33 Z  M 17 49 L 17 62 L 47 62 L 47 49 L 17 49 Z  M 17 62 L 15 62 L 15 64 L 17 64 L 17 62 Z  M 2 56.3 Q 2.15 62 7.95 62 L 15 62 L 15 49 L 2 49 L 2 56.3 Z  M 2 47 L 0 47 L 0 49 L 2 49 L 2 47 Z  M 0 31 L 0 33 L 2 33 L 2 31 L 0 31 Z  M 31 47 L 31 33 L 2 33 L 2 47 L 31 47 Z  M 33 33 L 33 47 L 62 47 L 62 33 L 33 33 Z  M 15 17 L 2 17 L 2 31 L 15 31 L 15 17 Z  M 2 7.95 L 2 15 L 31 15 L 31 2 L 7.95 2 Q 2 2 2 7.95 Z  M 0 15 L 0 17 L 2 17 L 2 15 L 0 15 Z  M 31 0 L 31 2 L 33 2 L 33 0 L 31 0 Z  M 62 17 L 49 17 L 49 31 L 62 31 L 62 17 Z  M 62 15 L 62 17 L 64 17 L 64 15 L 62 15 Z  M 62 15 L 62 7.95 Q 62 2 56.05 2 L 33 2 L 33 15 L 62 15 Z " fill="rgb(170,115,60)"/><path d=" M 49 49 L 47 49 L 47 62 L 49 62 L 49 49 Z  M 17 49 L 15 49 L 15 62 L 17 62 L 17 49 Z  M 33 47 L 33 33 L 31 33 L 31 47 L 33 47 Z  M 17 17 L 15 17 L 15 31 L 17 31 L 17 17 Z  M 33 2 L 31 2 L 31 15 L 33 15 L 33 2 Z  M 49 17 L 47 17 L 47 31 L 49 31 L 49 17 Z " fill="rgb(156,105,53)"/><path d=" M 64 49 L 62 49 L 62 56.3 Q 61.85 62 56.05 62 L 49 62 L 49 64 L 56.55 64 Q 63.75 63.75 64 56.55 L 64 49 Z  M 64 33 L 62 33 L 62 47 L 64 47 L 64 33 Z  M 17 62 L 17 64 L 47 64 L 47 62 L 17 62 Z  M 2 49 L 0 49 L 0 56.55 Q 0.25 63.75 7.45 64 L 15 64 L 15 62 L 7.95 62 Q 2.15 62 2 56.3 L 2 49 Z  M 2 33 L 0 33 L 0 47 L 2 47 L 2 33 Z  M 2 17 L 0 17 L 0 31 L 2 31 L 2 17 Z  M 31 2 L 31 0 L 7.45 0 Q 0.25 0.25 0 7.45 L 0 15 L 2 15 L 2 7.95 Q 2 2 7.95 2 L 31 2 Z  M 64 17 L 62 17 L 62 31 L 64 31 L 64 17 Z  M 62 7.95 L 62 15 L 64 15 L 64 7.45 Q 63.75 0.25 56.55 0 L 33 0 L 33 2 L 56.05 2 Q 62 2 62 7.95 Z " fill="rgb(189,128,66)"/><path d=" M 31 33 L 62 33 L 62 31 L 2 31 L 2 33 L 31 33 Z  M 33 47 L 2 47 L 2 49 L 62 49 L 62 47 L 33 47 Z  M 47 17 L 62 17 L 62 15 L 2 15 L 2 17 L 47 17 Z " fill="rgb(138,93,47)"/></g></g></g></svg>