<?xml version="1.0" standalone="no"?>
<!DOCTYPE svg PUBLIC "-//W3C//DTD SVG 20010904//EN"
 "http://www.w3.org/TR/2001/REC-SVG-20010904/DTD/svg10.dtd">
<svg version="1.0" xmlns="http://www.w3.org/2000/svg"
 width="290.000000pt" height="290.000000pt" viewBox="0 0 290.000000 290.000000"
 preserveAspectRatio="xMidYMid meet">
<metadata>
Created by potrace 1.11, written by Peter Selinger 2001-2013
</metadata>
<g transform="translate(0.000000,290.000000) scale(0.100000,-0.100000)"
fill="#000000" stroke="none">
<path d="M1188 2895 c-2 -1 -51 -6 -111 -9 -59 -4 -116 -9 -126 -11 -10 -2
-35 -6 -56 -9 -57 -9 -155 -60 -199 -103 -43 -41 -92 -139 -101 -200 -7 -44
-13 -141 -14 -230 -1 -35 -4 -62 -8 -61 -36 8 -199 -45 -305 -99 -102 -52
-122 -77 -124 -153 -1 -62 19 -111 63 -151 62 -59 119 -74 318 -84 33 -2 68
-3 77 -4 15 -1 17 -13 16 -95 -1 -90 -2 -94 -27 -109 -74 -44 -129 -137 -132
-223 -3 -65 18 -96 84 -129 45 -22 51 -29 52 -58 1 -45 14 -78 40 -107 l23
-25 -19 -60 c-23 -70 -27 -92 -34 -165 -10 -112 -15 -128 -40 -134 -32 -8
-109 -85 -135 -136 -86 -169 106 -411 408 -511 65 -22 185 -30 245 -16 51 11
88 47 126 126 l37 76 333 0 c183 0 336 -2 341 -5 5 -3 18 -30 30 -60 40 -103
99 -141 225 -145 62 -3 96 2 152 20 290 92 492 334 415 497 -20 44 -93 127
-124 144 -14 8 -19 28 -23 89 -3 44 -15 118 -26 164 -17 72 -17 86 -5 100 22
26 43 73 54 126 11 47 14 65 27 170 11 85 16 176 19 316 3 110 7 152 19 170
19 30 24 60 33 174 13 177 5 270 -31 378 -91 267 -356 435 -820 518 -101 18
-165 22 -397 24 -152 2 -278 2 -280 0z"/>
</g>
</svg>
