<?xml version="1.0" standalone="no"?><svg xmlns="http://www.w3.org/2000/svg" xmlns:xlink="http://www.w3.org/1999/xlink"><symbol style="isolation:isolate" viewBox="0 0 64 63.95" id="box" xmlns="http://www.w3.org/2000/svg"><defs><clipPath id="aa"><path d="M0 0h64v63.95H0z"/></clipPath></defs><g clip-path="url(#aa)"><path d="M.3 5.25Q.05 6.3 0 7.55V56.4q.05 1.25.3 2.3.9 4.05 5 5 1 .2 2.15.25H56.6q1.2-.05 2.15-.25 4.05-.95 5-5 .2-1.05.25-2.3V7.55q-.05-1.3-.25-2.3-.1-.3-.15-.55-.4-1.25-1.1-2.2Q61.2.8 58.75.25q-.9-.2-1.95-.25H7.25Q6.2.05 5.3.25q-4.1.9-5 5zm1.95.5V5.7q.65-2.85 3.5-3.5.7-.15 1.5-.2H56.7q.85.05 1.6.2 1.7.4 2.6 1.55V3.7q.5.65.8 1.55.05.25.15.55.1.8.15 1.85v48.7q-.05 1.05-.2 2v-.1q-.65 2.85-3.5 3.5h.05q-.8.15-1.75.2H7.55q-1-.05-1.85-.2h.05q-2.85-.65-3.5-3.45v-.05q-.2-.85-.25-1.85V7.65q.05-1.05.25-1.9z" fill="#3FA8E5"/><path d="M2.25 5.7v.05q-.2.85-.25 1.9V56.4q.05 1 .25 1.85v.05q.65 2.8 3.5 3.45H5.7q.85.15 1.85.2H56.6q.95-.05 1.75-.2h-.05q2.85-.65 3.5-3.5v.1q.15-.95.2-2V7.65q-.05-1.05-.15-1.85-.1-.3-.15-.55-.3-.9-.8-1.55v.05Q60 2.6 58.3 2.2q-.75-.15-1.6-.2H7.25q-.8.05-1.5.2-2.85.65-3.5 3.5zm7.75.25h44v28H10v-28zm44 37v15H10v-15h44zm-5-14.7h-4v2.5h4v-2.5zm-4-19.1v2.55h4V9.15h-4zm-26 19.1h-4v2.5h4v-2.5zm0-16.55V9.15h-4v2.55h4z" fill="#2F95D0"/><path d="M54 57.95v-15H10v15h44zm0-52H10v28h44v-28zm-35 3.2v2.55h-4V9.15h4zm-4 19.1h4v2.5h-4v-2.5zM45 11.7V9.15h4v2.55h-4zm0 16.55h4v2.5h-4v-2.5z" fill="#2678A8"/><g fill-opacity=".102"><path d="M56.55 39.95q7.35-.15 7.45-4.8v-2q-.1 4.65-7.45 4.8H7.45Q.1 37.8 0 33.15v2q.1 4.65 7.45 4.8h49.1z" fill="#FFF"/><path d="M64 35.15q-.1 4.65-7.45 4.8H7.45Q.1 39.8 0 35.15V56.4q.05 1.25.3 2.3.9 4.05 5 5 1 .2 2.15.25H56.6q1.2-.05 2.15-.25 4.05-.95 5-5 .2-1.05.25-2.3V35.15z"/></g></g></symbol><symbol style="isolation:isolate" viewBox="0 0 64 64" id="boxAlt" xmlns="http://www.w3.org/2000/svg"><defs><clipPath id="ba"><path d="M0 0h64v64H0z"/></clipPath></defs><g clip-path="url(#ba)"><path d="M7.25.025Q6.2.075 5.3.275q-4.1.9-5 5-.25 1.05-.3 2.3v48.85q.05 1.25.3 2.3.9 4.05 5 5 1 .2 2.15.25H56.6q1.2-.05 2.15-.25 4.05-.95 5-5 .2-1.05.25-2.3V7.575q-.05-1.3-.25-2.3-.1-.3-.15-.55-.4-1.25-1.1-2.2-1.3-1.7-3.75-2.25-.9-.2-1.95-.25H7.25m-1.5 2.2q.7-.15 1.5-.2H56.7q.85.05 1.6.2 1.7.4 2.6 1.55v-.05q.5.65.8 1.55.05.25.15.55.1.8.15 1.85v48.7q-.05 1.05-.2 2v-.1q-.65 2.85-3.5 3.5h.05q-.8.15-1.75.2H7.55q-1-.05-1.85-.2h.05q-2.85-.65-3.5-3.45v-.05q-.2-.85-.25-1.85V7.675q.05-1.05.25-1.9v-.05q.65-2.85 3.5-3.5z" fill="#33E27D"/><path d="M7.25 2.025q-.8.05-1.5.2-2.85.65-3.5 3.5v.05q-.2.85-.25 1.9v48.75q.05 1 .25 1.85v.05q.65 2.8 3.5 3.45H5.7q.85.15 1.85.2H56.6q.95-.05 1.75-.2h-.05q2.85-.65 3.5-3.5v.1q.15-.95.2-2v-48.7q-.05-1.05-.15-1.85-.1-.3-.15-.55-.3-.9-.8-1.55v.05q-.9-1.15-2.6-1.55-.75-.15-1.6-.2H7.25m2.75 10.3v-6.35h44v28H10v-21.65m44 30.65v15H10v-15h44z" fill="#2ECC71"/><path d="M54 57.975v-15H10v15h44zm-44-45.65v15.3l9.5-6.05 10 6.35-9.5 6.05h24l-9.5-6.05 10-6.35 9.5 6.05v-15.3l-9.5 6.05-10-6.35 9.5-6.05H20l9.5 6.05-10 6.35-9.5-6.05zm22 14l-10-6.35 10-6.35 10 6.35-10 6.35z" fill="#219853"/><path d="M44.5 21.575l-10 6.35 9.5 6.05h10v-6.35l-9.5-6.05m-.5-15.6l-9.5 6.05 10 6.35 9.5-6.05v-6.35H44zm-14.5 21.95l-10-6.35-9.5 6.05v6.35h10l9.5-6.05zm-7.5-7.95l10 6.35 10-6.35-10-6.35-10 6.35zm-12-14v6.35l9.5 6.05 10-6.35-9.5-6.05H10z" fill="#28B462"/><g fill-opacity=".102"><path d="M64 35.175v-2q-.1 4.65-7.45 4.8H7.45q-7.35-.15-7.45-4.8v2q.1 4.65 7.45 4.8h49.1q7.35-.15 7.45-4.8z" fill="#FFF"/><path d="M64 56.425v-21.25q-.1 4.65-7.45 4.8H7.45q-7.35-.15-7.45-4.8v21.25q.05 1.25.3 2.3.9 4.05 5 5 1 .2 2.15.25H56.6q1.2-.05 2.15-.25 4.05-.95 5-5 .2-1.05.25-2.3z"/></g></g></symbol><symbol style="isolation:isolate" viewBox="0 0 64 64" id="dot" xmlns="http://www.w3.org/2000/svg"><defs><clipPath id="ca"><path d="M0 0h64v64H0z"/></clipPath></defs><g clip-path="url(#ca)"><path d="M58 52.05V38h-4v14.05Q54 54 52.05 54H38v4h14.05Q58 58 58 52.05zM58 26V11.95Q58 6 52.05 6H38v4h14.05Q54 10 54 11.95V26h4zM10 38H6v14.05Q6 58 11.95 58H26v-4H11.95Q10 54 10 52.05V38zm0-12V11.95Q10 10 11.95 10H26V6H11.95Q6 6 6 11.95V26h4z" fill="#986735"/><path d="M60 52.05V38h-2v14.05Q58 58 52.05 58H38v2h14.05Q60 60 60 52.05zM52.05 4H38v2h14.05Q58 6 58 11.95V26h2V11.95Q60 4 52.05 4zM6 52.05V38H4v14.05Q4 60 11.95 60H26v-2H11.95Q6 58 6 52.05zM6 26V11.95Q6 6 11.95 6H26V4H11.95Q4 4 4 11.95V26h2z" fill="#D9944E"/></g></symbol><symbol style="isolation:isolate" viewBox="0 0 64 64" id="dotAlt" xmlns="http://www.w3.org/2000/svg"><defs><clipPath id="da"><path d="M0 0h64v64H0z"/></clipPath></defs><g clip-path="url(#da)"><path d="M6 38v14.05Q6 58 11.95 58H26v-4H11.95Q10 54 10 52.05V38H6zm52 14.05V38h-4v14.05Q54 54 52.05 54H38v4h14.05Q58 58 58 52.05zM54 26h4V11.95Q58 6 52.05 6H38v4h14.05Q54 10 54 11.95V26zM26 10V6H11.95Q6 6 6 11.95V26h4V11.95Q10 10 11.95 10H26z" fill="#219853"/><path d="M6 52.05V38H4v14.05Q4 60 11.95 60H26v-2H11.95Q6 58 6 52.05zm54 0V38h-2v14.05Q58 58 52.05 58H38v2h14.05Q60 60 60 52.05zM52.05 4H38v2h14.05Q58 6 58 11.95V26h2V11.95Q60 4 52.05 4zM26 4H11.95Q4 4 4 11.95V26h2V11.95Q6 6 11.95 6H26V4z" fill="#2ECC71"/></g></symbol><symbol style="isolation:isolate" viewBox="0 0 64 64" id="floor" xmlns="http://www.w3.org/2000/svg"><defs><clipPath id="ea"><path d="M0 0h64v64H0z"/></clipPath></defs><g clip-path="url(#ea)"><path d="M60.7 50.2q-.6.45-2.05 1.85-1.35 1.45-1.8 2-.75 1.05-.7 1.8-.05.8.7 1.8.45.6 1.8 2.05 1.45 1.4 2.05 1.8 1 .75 1.8.7.65.05 1.5-.5V50q-.85-.5-1.5-.5-.8 0-1.8.7zM64 3.55q-.05 0-.05.05-.2.15-.3.35l-.1.1Q62.4 5.4 62.35 6.5q-.15 1.15.85 2.65.25.45.75 1.1l.05.05V3.55zM5.5 62.85Q4.95 63.2 4 64h7.4q-.45-.5-.75-.75-1.4-1.2-2.5-1.2-1.15-.15-2.65.8zm-1.35-8.8q-.4-.55-1.8-2Q.85 50.65.3 50.2L0 50v11.75q.15-.1.3-.25.55-.4 2.05-1.8 1.4-1.5 1.8-2.05.75-1 .7-1.8.05-.75-.7-1.8zM44.2 40.7q-.65.7-1.15 1.25-1 1.1-1.45 1.7-1.1 1.45-1.05 2.55-.05 1.15 1.05 2.6.65.9 2.6 2.95 2.05 1.95 2.95 2.65 1.45 1.05 2.55 1 1.15.05 2.6-1 .85-.65 2.95-2.65 2-2.05 2.65-2.95 1.05-1.45 1-2.6.05-1.1-1-2.55-.45-.6-1.45-1.7-.55-.55-1.2-1.25-2.1-2-2.95-2.65-1.45-1.05-2.6-1-1.1-.05-2.55 1-.9.7-2.95 2.65zm.7-31.25q-1.45-1.4-2.05-1.8-1-.75-1.8-.75-.75 0-1.75.75-.6.4-2.05 1.8-1.4 1.45-1.85 2.05-.7 1-.7 1.75 0 .8.7 1.8.45.6 1.85 2.05 1.45 1.4 2.05 1.85 1 .7 1.75.7.8 0 1.8-.7.6-.45 2.05-1.85 1.4-1.45 1.8-2.05.75-1 .7-1.8.05-.75-.7-1.75-.4-.55-1.8-2.05zM4 0q-.7.5-1.65 1.25Q.75 2.7 0 3.55v6.75q.6.8 1.55 2 1.95 2.15 2.75 2.85 1.35 1.15 2.5 1.2 1.1.1 2.65-.85.95-.6 3.1-2.4 2.15-1.9 2.85-2.75 1.15-1.35 1.2-2.5.15-1.1-.8-2.65-.3-.45-.85-1.25-.65-.8-1.55-1.9-1.2-1.3-2-2.05H4z" fill="#849EA1"/><path d="M47.1 62.45q-.85.85-1.45 1.55H59.6q-.65-.7-1.45-1.55-2.1-2-2.95-2.6-1.45-1.05-2.6-1.05-1.1 0-2.55 1.05-.9.65-2.95 2.6zm-14.85-9.9q-2.05-1.5-3.65-1.45-1.55-.05-3.6 1.45-1.2.9-4.15 3.7-2.8 2.95-3.7 4.2-1.5 2-1.45 3.55h25.85q.05-1.55-1.45-3.55-.9-1.25-3.7-4.2-2.95-2.8-4.15-3.7zm7.65-48.6l.2-.3Q41.6 1.6 41.55 0H15.7q-.05 1.6 1.45 3.65.1.15.25.3.95 1.25 3.45 3.85 2.95 2.8 4.15 3.7 2.05 1.5 3.6 1.45 1.6.05 3.65-1.45 1.2-.9 4.15-3.7 2.5-2.6 3.5-3.85zm24.1 9.6h-.05q-2.05-1.55-3.7-1.5-1.65-.05-3.75 1.5-1.3.95-4.35 3.85-2.9 3.05-3.85 4.35-1.55 2.15-1.5 3.8-.05 1.65 1.5 3.75.95 1.3 3.85 4.35 3.05 2.9 4.35 3.85 2.1 1.55 3.75 1.5 1.65.05 3.75-1.45v-24zm-2.2-9.6q0-1.15-1.05-2.55-.35-.5-1.2-1.4H45.7q-.85.9-1.25 1.4-1.05 1.4-1 2.55V4q-.05 1.1 1 2.55.65.9 2.65 2.95 2.05 2 2.95 2.65 1.45 1.05 2.55 1 1.15.05 2.6-1 .85-.65 2.95-2.65 1.95-2.05 2.6-2.95Q61.8 5.1 61.8 4v-.05zM4.35 17.4q-3.1-2.95-4.3-3.85H0v24l.05-.05q1.2-.9 4.3-3.85 2.9-3.05 3.85-4.35 1.55-2.1 1.5-3.75.05-1.65-1.5-3.8-.95-1.3-3.85-4.35zm20.1 5.65q-3.1 2.85-4.1 4.1-1.7 2.05-1.75 3.7-.15 1.6 1.3 3.85.85 1.3 3.6 4.55 1.5 1.65 2.6 2.7.9.95 1.5 1.4 2.05 1.65 3.65 1.7 1.65.15 3.9-1.25.8-.55 2.45-1.85l2.1-1.75q3.05-2.85 4.1-4.1 1.7-2.05 1.75-3.7.15-1.65-1.3-3.85-.85-1.3-3.6-4.55-2.85-3.1-4.1-4.1-2.05-1.7-3.7-1.75Q31.2 18 29 19.45q-1.35.85-4.55 3.6zM19 14.7q-.9-.9-1.65-1-.75-.1-1.85.45-.65.35-2.3 1.5-1.55 1.25-2.1 1.8-.85.9-.95 1.65-.15.75.45 1.85.35.65 1.5 2.3 1.2 1.6 1.75 2.1.9.9 1.65.95.8.15 1.85-.45.7-.35 2.3-1.5 1.6-1.25 2.1-1.75.9-.9.95-1.65.15-.8-.4-1.85-.35-.65-1.5-2.3-1.25-1.6-1.8-2.1zM5.25 41.95L5.2 42q-.9 1.55-.75 2.65.05 1.1 1.3 2.45.7.8 2.9 2.65 2.3 1.75 3.25 2.25 1.55.9 2.65.75 1.15-.1 2.45-1.3.8-.75 2.65-2.95 1.75-2.25 2.3-3.2.9-1.55.7-2.7 0-.3-.1-.65-.3-.85-1.2-1.8-.75-.8-2.9-2.6-2.3-1.75-3.25-2.3-1.55-.9-2.65-.75-1.15.1-2.45 1.3-.8.75-2.65 2.95-1.7 2.25-2.2 3.2z" fill="#7D9598"/><path d="M.05 13.55q1.2.9 4.3 3.85 2.9 3.05 3.85 4.35 1.55 2.15 1.5 3.8.05 1.65-1.5 3.75-.95 1.3-3.85 4.35-3.1 2.95-4.3 3.85l-.05.05V50l.3.2q.55.45 2.05 1.85 1.4 1.45 1.8 2 .75 1.05.7 1.8.05.8-.7 1.8-.4.55-1.8 2.05Q.85 61.1.3 61.5q-.15.15-.3.25V64h4q.95-.8 1.5-1.15 1.5-.95 2.65-.8 1.1 0 2.5 1.2.3.25.75.75h4.3q-.05-1.55 1.45-3.55.9-1.25 3.7-4.2 2.95-2.8 4.15-3.7 2.05-1.5 3.6-1.45 1.6-.05 3.65 1.45 1.2.9 4.15 3.7 2.8 2.95 3.7 4.2 1.5 2 1.45 3.55h4.1q.6-.7 1.45-1.55 2.05-1.95 2.95-2.6 1.45-1.05 2.55-1.05 1.15 0 2.6 1.05.85.6 2.95 2.6.8.85 1.45 1.55H64v-2.3q-.85.55-1.5.5-.8.05-1.8-.7-.6-.4-2.05-1.8-1.35-1.45-1.8-2.05-.75-1-.7-1.8-.05-.75.7-1.8.45-.55 1.8-2 1.45-1.4 2.05-1.85 1-.7 1.8-.7.65 0 1.5.5V37.55q-2.1 1.5-3.75 1.45-1.65.05-3.75-1.5-1.3-.95-4.35-3.85-2.9-3.05-3.85-4.35-1.55-2.1-1.5-3.75-.05-1.65 1.5-3.8.95-1.3 3.85-4.35 3.05-2.9 4.35-3.85 2.1-1.55 3.75-1.5 1.65-.05 3.7 1.5H64V10.3l-.05-.05q-.5-.65-.75-1.1-1-1.5-.85-2.65.05-1.1 1.2-2.45l.1-.1q.1-.2.3-.35 0-.05.05-.05V0h-4.45q.85.9 1.2 1.4 1.05 1.4 1.05 2.55V4q0 1.1-1.05 2.55-.65.9-2.6 2.95-2.1 2-2.95 2.65-1.45 1.05-2.6 1-1.1.05-2.55-1-.9-.65-2.95-2.65-2-2.05-2.65-2.95-1.05-1.45-1-2.55v-.05q-.05-1.15 1-2.55.4-.5 1.25-1.4h-4.15q.05 1.6-1.45 3.65l-.2.3q-1 1.25-3.5 3.85-2.95 2.8-4.15 3.7-2.05 1.5-3.65 1.45-1.55.05-3.6-1.45-1.2-.9-4.15-3.7-2.5-2.6-3.45-3.85-.15-.15-.25-.3Q15.65 1.6 15.7 0h-4.3q.8.75 2 2.05.9 1.1 1.55 1.9.55.8.85 1.25.95 1.55.8 2.65-.05 1.15-1.2 2.5-.7.85-2.85 2.75-2.15 1.8-3.1 2.4-1.55.95-2.65.85-1.15-.05-2.5-1.2-.8-.7-2.75-2.85-.95-1.2-1.55-2v3.25h.05zM5.2 42l.05-.05q.5-.95 2.2-3.2 1.85-2.2 2.65-2.95 1.3-1.2 2.45-1.3 1.1-.15 2.65.75.95.55 3.25 2.3 2.15 1.8 2.9 2.6.9.95 1.2 1.8.1.35.1.65.2 1.15-.7 2.7-.55.95-2.3 3.2-1.85 2.2-2.65 2.95-1.3 1.2-2.45 1.3-1.1.15-2.65-.75-.95-.5-3.25-2.25-2.2-1.85-2.9-2.65-1.25-1.35-1.3-2.45-.15-1.1.75-2.65zm12.15-28.3q.75.1 1.65 1 .55.5 1.8 2.1 1.15 1.65 1.5 2.3.55 1.05.4 1.85-.05.75-.95 1.65-.5.5-2.1 1.75-1.6 1.15-2.3 1.5-1.05.6-1.85.45-.75-.05-1.65-.95-.55-.5-1.75-2.1-1.15-1.65-1.5-2.3-.6-1.1-.45-1.85.1-.75.95-1.65.55-.55 2.1-1.8 1.65-1.15 2.3-1.5 1.1-.55 1.85-.45zm3 13.45q1-1.25 4.1-4.1 3.2-2.75 4.55-3.6 2.2-1.45 3.85-1.3 1.65.05 3.7 1.75 1.25 1 4.1 4.1 2.75 3.25 3.6 4.55 1.45 2.2 1.3 3.85-.05 1.65-1.75 3.7-1.05 1.25-4.1 4.1l-2.1 1.75q-1.65 1.3-2.45 1.85-2.25 1.4-3.9 1.25-1.6-.05-3.65-1.7-.6-.45-1.5-1.4-1.1-1.05-2.6-2.7-2.75-3.25-3.6-4.55-1.45-2.25-1.3-3.85.05-1.65 1.75-3.7zm22.5-19.5q.6.4 2.05 1.8 1.4 1.5 1.8 2.05.75 1 .7 1.75.05.8-.7 1.8-.4.6-1.8 2.05-1.45 1.4-2.05 1.85-1 .7-1.8.7-.75 0-1.75-.7-.6-.45-2.05-1.85-1.4-1.45-1.85-2.05-.7-1-.7-1.8 0-.75.7-1.75.45-.6 1.85-2.05 1.45-1.4 2.05-1.8 1-.75 1.75-.75.8 0 1.8.75zm.2 34.3q.5-.55 1.15-1.25 2.05-1.95 2.95-2.65 1.45-1.05 2.55-1 1.15-.05 2.6 1 .85.65 2.95 2.65.65.7 1.2 1.25 1 1.1 1.45 1.7 1.05 1.45 1 2.55.05 1.15-1 2.6-.65.9-2.65 2.95-2.1 2-2.95 2.65-1.45 1.05-2.6 1-1.1.05-2.55-1-.9-.7-2.95-2.65-1.95-2.05-2.6-2.95-1.1-1.45-1.05-2.6-.05-1.1 1.05-2.55.45-.6 1.45-1.7zM0 0v3.55q.75-.85 2.35-2.3Q3.3.5 4 0H0z" fill="#758C8E"/></g></symbol><symbol style="isolation:isolate" viewBox="0 0 64 64" id="player" xmlns="http://www.w3.org/2000/svg"><defs><clipPath id="fa"><path d="M0 0h64v64H0z"/></clipPath></defs><g clip-path="url(#fa)"><path d="M19.1 5.981q-6.15.85-6.95 5.85-.15.35-.15.75v9.95q-.05 1.85.85 2.95-1 .35-1.85 1.1l-.05.05q-2 1.8-1.95 4.25v.15q0 2.5 1.95 4.15 1.2 1.2 2.75 1.6 0 .047.05.1l-.05-.05q.05.55.2 1-.85.45-1.55 1.2-.05 0-.05.05-2.35 2.25-2.3 5.3 0 1.45.55 2.75-.1 1.25.3 2.7v.05q.65 2.5 2.8 4.05.05.05.15.1l.2.1q0 .3.05.6-.05 1.85 2.7 3.15h-.05l.2.1q.1.05.15.05.55.25 1.25.45.05 0 .1.05 1.7.45 3.8.45 2.1 0 3.8-.45.05-.05.15-.05.55-.25 1.1-.45.05 0 .15-.05 1.2-.6 1.85-1.2l.15-.15q.7-.85.9-1.65.05-.25.05-.5v-1.15q.75-.1 1.65-.1.9 0 1.7.1-.05.35-.05.7 0 .4.05.7-.05 1.85 2.7 3.15h-.05q.2.1.55.2.45.2 1 .4.05 0 .15.05 1.7.45 3.8.45 2.15 0 3.8-.45.05-.05.15-.05l1.1-.4q.1-.05.25-.1 1.1-.6 1.75-1.2l.15-.15q.7-.85.9-1.65.05-.25.05-.5v-.35q.1-.05.25-.1l.1-.1q2.15-1.55 2.85-4.05v-.05q.35-1.45.25-2.7.55-1.3.55-2.75.05-3.05-2.3-5.3 0-.05-.05-.05-.65-.7-1.45-1.15l.1-.4v-.05q.05-.2.1-.35.05-.2.05-.35 1.4-.4 2.55-1.45 2.05-1.75 2-4.25 0-2.65-1.95-4.4l-.05-.05q-.85-.75-1.85-1.1.85-1.1.85-2.95v-9.95q0-.45-.15-.8-.85-4.95-6.9-5.75-12.95-2-25.8-.05h-.05z" fill="#694C39"/><path d="M22.2 48.981q-2.55 0-4.4 1.5-1.8 1.45-1.8 3.55 0 .15.05.2v.25q.1.9 1.55 1.6l.2.1q.5.2 1.1.4 1.5.4 3.3.4 1.8 0 3.25-.4.55-.2 1.05-.4.9-.45 1.4-.9.35-.4.45-.8v-.45q0-2.1-1.85-3.55-1.75-1.5-4.3-1.5zM41.85 48.981q-2.55 0-4.35 1.5-1.85 1.45-1.85 3.55 0 .15.05.2v.25q.1.9 1.55 1.6.1.05.25.1.5.2 1.05.4 1.5.4 3.3.4 1.85 0 3.25-.4l1.1-.4q.85-.45 1.35-.9.35-.4.45-.8v-.45q0-2.1-1.8-3.55-1.8-1.5-4.35-1.5z" fill="#333"/><path d="M25.8 52.981q.2-.15.45-.35 2.35-1.4 5.75-1.4t5.75 1.4q.2.2.45.35h1.55q-.6-2.2-2-4.1-.25-.3-.45-.55-2.25-2.4-5.3-2.4t-5.25 2.4q-.25.25-.5.55-1.45 1.9-2 4.1h1.55z" fill="#CD4335"/><path d="M16.25 51.331q1 1.65 3.5 1.65h4.5q.55-2.2 2-4.1.25-.3.5-.55 2.2-2.4 5.25-2.4t5.3 2.4q.2.25.45.55 1.4 1.9 2 4.1h4.5q3.4 0 4.1-2.95l.1-.4q0-.15.05-.35.05-.45.15-.95v-.05q.5-7.55-3.2-10.85H18.6q-3.65 3.55-3.1 10.9.05.65.2 1.3.05.45.15.75.15.55.4.95z" fill="#E74C3C"/><path d="M15.4 26.981q-1.8 0-3.1 1.1-1.3 1.2-1.3 2.8v.15q0 1.65 1.3 2.7 1.3 1.25 3.1 1.25 1.85 0 3.15-1.25 1.3-1.1 1.3-2.7 0-1.75-1.3-2.95-1.3-1.1-3.15-1.1zm33.15 0q-1.85 0-3.15 1.1-1.25 1.2-1.3 2.8v.15q.05 1.65 1.3 2.7 1.3 1.25 3.15 1.25 1.85 0 3.15-1.25 1.3-1.1 1.3-2.7 0-1.75-1.3-2.95-1.3-1.1-3.15-1.1z" fill="#D7BD93"/><path d="M24.25 40.281q.55 1.2 2 2.15 2.35 1.55 5.75 1.55t5.75-1.55q1.4-.95 2-2.15h-15.5z" fill="#2ECC71"/><path d="M15.05 26.131q-.05 1.55 0 3.15 4.75-3.85 4.75-12.2-.05-.5-.05-1.1-1.9 0-2.95 1.1-.9.95-1.1 2.65-.5 3.2-.65 6.4zm29.2-10.15q.05.6.1 1.1.65 8 4.65 12.2.05-1.9-.05-3.8-.2-2.9-.55-5.85-.25-1.6-1.1-2.55-1.05-1.1-3.05-1.1z" fill="#694C39"/><path d="M44.35 17.081q-.05-.5-.1-1.1h-24.5q0 .6.05 1.1 0 8.35-4.75 12.2.05 3.65.65 7.3.05.45.15.8.15.65.4 1.1 1 1.8 3.5 1.8h24.5q3.4 0 4.1-3.25.05-.25.1-.45 0-.2.05-.4.4-3.1.5-6.3v-.6q-4-4.2-4.65-12.2z" fill="#FFE0B1"/><path d="M42.4 32.081q.6-.8.6-2.1t-.6-2.1q-.5-.9-1.4-.9-.8 0-1.4.9-.6.8-.6 2.1t.6 2.1q.6.9 1.4.9.9 0 1.4-.9zM21 29.981q0 1.3.6 2.1.6.9 1.4.9.85 0 1.4-.9.6-.8.6-2.1t-.6-2.1q-.55-.9-1.4-.9-.8 0-1.4.9-.6.8-.6 2.1zM25 37.281q0 .75 2.05 1.2 2.1.5 4.95.5 2.9 0 5-.5 2-.45 2-1.2 0-1.75-2-3-2.1-1.3-5-1.3-2.85 0-4.95 1.3-1.85 1.25-2.05 3z" fill="#694C39"/><path d="M49.95 12.581q-.55-3.95-5.3-4.6Q32 6.031 19.4 7.931q-4.85.7-5.35 4.65H14v7.6q18.25-2.05 36 0v-7.6h-.05z" fill="#28B162"/><path d="M47.35 24.981q2.65 0 2.65-2.45v-2.35q-17.75-2.05-36 0v2.35q-.05 2.45 2.65 2.45h30.7z" fill="#2ECC71"/><path d="M29 33.881q0 .45.9.8.9.3 2.15.3 1.2 0 2.1-.3.85-.35.85-.8 0-1.15-.85-2-.9-.9-2.1-.9-1.25 0-2.15.9-.8.85-.9 2z" fill="#D7BD93"/><g><path d="M20.8 43.131q-.3-.15-.55-.25-1.75-.85-3.55-.35-2.35.65-3.5 2.6-.5.85-.6 1.65-.2 1.2.15 2.55.5 1.85 2.05 2.95.25.15.55.3.1.1.2.15 1.15.6 2.65-.3 1.65-.9 2.75-2.9 1.15-1.9 1.15-3.85-.05-1.75-1.1-2.4-.05-.05-.1-.05l-.1-.1z" fill="#FFE0B1"/><path d="M16.45 38.981q-1.6.3-2.7 1.45-1.75 1.7-1.75 3.95 0 1.3.6 2.4.1-.8.6-1.65 1.15-1.95 3.5-2.6 1.8-.5 3.55.35.25.1.55.25-4.05-2.8-4.35-4.15z" fill="#2ECC71"/></g><g><path d="M51.4 46.781q-.15-.8-.6-1.65-1.15-1.95-3.5-2.6-1.8-.5-3.55.35-.25.1-.55.25l-.1.1q-.05 0-.1.05-1.05.65-1.1 2.4 0 1.95 1.15 3.85 1.1 2 2.75 2.9 1.5.9 2.65.3.1-.05.2-.15.3-.15.55-.3 1.55-1.1 2.05-2.95.35-1.35.15-2.55z" fill="#FFE0B1"/><path d="M50.25 40.431q-1.1-1.15-2.7-1.45-.3 1.35-4.35 4.15.3-.15.55-.25 1.75-.85 3.55-.35 2.35.65 3.5 2.6.45.85.6 1.65.6-1.1.6-2.4 0-2.25-1.75-3.95z" fill="#2ECC71"/></g><path d="M31.95 12.981q-3.3 0-5.7 1.9-2.05 1.75-2.25 4.1h16q-.25-2.35-2.4-4.1-2.3-1.9-5.65-1.9z" fill="#FFF"/></g></symbol><symbol style="isolation:isolate" viewBox="0 0 64 64" id="wall" xmlns="http://www.w3.org/2000/svg"><defs><clipPath id="ga"><path d="M0 0h64v64H0z"/></clipPath></defs><g clip-path="url(#ga)"><path d="M17 51v11h30V51H17zm30 13h2v-2h-2v2zm-32-2v2h2v-2h-2zm0-11H2v5.95h.05Q2.5 62 7.95 62H15V51zM2 19v14h13V19H2zm0 16v14h29V35H2zm0 14H0v2h2v-2zm0-16H0v2h2v-2zM0 19h2v-2H0v2zm47 14V19H17v14h30zm2 0h13V19H49v14zm13 18H49v11h7.05q5.45 0 5.95-5.05V51zm0-2V35H33v14h29zm0 0v2h2v-2h-2zm2-14v-2h-2v2h2zm-2-18v2h2v-2h-2zM56.05 4H33v13h29V9.95Q62 4 56.05 4zM31 4H7.95Q2 4 2 9.95V17h29V4zm0 0h2V2h-2v2z" fill="#AA733C"/><path d="M17 62v2h30v-2H17zM2 51H0v5.95h.05q.4 6.8 7.4 7.05H15v-2H7.95q-5.45 0-5.9-5.05H2V51zm0-16H0v14h2V35zm0-16H0v14h2V19zm62 32h-2v5.95Q61.5 62 56.05 62H49v2h7.55q7-.25 7.45-7.05V51zm0-16h-2v14h2V35zm0-16h-2v14h2V19zM31 4V2H7.45Q.25 2.25 0 9.45V17h2V9.95Q2 4 7.95 4H31zm2-2v2h23.05Q62 4 62 9.95V17h2V9.45q-.25-7.2-7.45-7.45H33z" fill="#BD8042"/><path d="M17 51h-2v11h2V51zm16-2V35h-2v14h2zM17 19h-2v14h2V19zm32 32h-2v11h2V51zm0-32h-2v14h2V19zM33 4h-2v13h2V4z" fill="#9C6935"/><path d="M47 51h15v-2H2v2h45zm2-18H2v2h60v-2H49zm13-14v-2H2v2h60z" fill="#8A5D2F"/><g><path d="M7.25 0Q6.2.05 5.3.25q-4.1.9-5 5Q.05 6.3 0 7.55v27.6q.05 2.4 2 3.6 1.85 1.15 5.45 1.2h49.1q3.6-.05 5.45-1.2 1.95-1.2 2-3.6V7.55q-.05-1.3-.25-2.3-.1-.3-.15-.55-.4-1.25-1.1-2.2Q61.2.8 58.75.25q-.9-.2-1.95-.25H7.25zm-5 5.75V5.7q.65-2.85 3.5-3.5.55-.1 1.1-.15L56.7 2q.85.05 1.6.2 1.7.4 2.6 1.55V3.7q.5.65.8 1.55.05.25.15.55.1.8.15 1.85v29.1q-1.85 1.15-5.45 1.2H7.45q-3.6-.05-5.45-1.2V7.65q.05-1.05.25-1.9z" fill="#BD8042"/><path d="M2.25 5.7v.05q-.2.85-.25 1.9v29.1q1.85 1.15 5.45 1.2h49.1q3.6-.05 5.45-1.2V7.65q-.05-1.05-.15-1.85-.1-.3-.15-.55-.3-.9-.8-1.55v.05Q60 2.6 58.3 2.2q-.75-.15-1.6-.2l-49.85.05q-.55.05-1.1.15-2.85.65-3.5 3.5zm55.55.6l.05.05.05.05v.2q.05.55.1 1.25v26q-.65.1-1.45.1H7.45q-.8 0-1.45-.1v-26q.05-.65.15-1.15 0-.1.05-.2.1-.3.45-.4H6.6q.2-.05.45-.05L56.5 6l.9.1q.2.05.35.15.05 0 .05.05zm.05.1v-.05.05z" fill="#AA733C"/><path d="M57.9 6.55V6.4l-.05-.05v.05q.048.068.05.15z" fill="#9F6B37"/><path d="M57.85 6.35l-.05-.05q0-.05-.05-.05-.15-.1-.35-.15l-.9-.1-49.45.05q-.25 0-.45.05h.05q-.35.1-.45.4-.05.1-.05.2-.1.5-.15 1.15v26q.65.1 1.45.1h49.1q.8 0 1.45-.1v-26q-.05-.7-.1-1.25v-.05q-.002-.082-.05-.15v-.05z" fill="#916132"/></g></g></symbol><symbol style="isolation:isolate" viewBox="0 0 64 64" id="wallAlt" xmlns="http://www.w3.org/2000/svg"><defs><clipPath id="ha"><path d="M0 0h64v64H0z"/></clipPath></defs><g clip-path="url(#ha)"><path d="M17 62h30V51H17v11zm-2-11H2v5.3Q2.15 62 7.95 62H15V51zM0 35h2v-2H0v2zm15-16H2v14h13V19zM2 17H0v2h2v-2zm45 16V19H17v14h30zM31 49V35H2v14h29zm0-45H7.95Q2 4 2 9.95V17h29V4zm2-2h-2v2h2V2zm29 54.3V51H49v11h7.05q5.8 0 5.95-5.7zM62 33V19H49v14h13zm0 16V35H33v14h29zm2-14v-2h-2v2h2zm0-18h-2v2h2v-2zm-2 0V9.95Q62 4 56.05 4H33v13h29z" fill="#CD4334"/><path d="M17 62v2h30v-2H17zM2 51H0v5.55q.25 7.2 7.45 7.45H15v-2H7.95Q2.15 62 2 56.3V51zm0-16H0v14h2V35zm0-16H0v14h2V19zM31 4V2H7.45Q.25 2.25 0 9.45V17h2V9.95Q2 4 7.95 4H31zm33 47h-2v5.3q-.15 5.7-5.95 5.7H49v2h7.55q7.2-.25 7.45-7.45V51zm0-16h-2v14h2V35zm0-16h-2v14h2V19zm-2-9.05V17h2V9.45q-.25-7.2-7.45-7.45H33v2h23.05Q62 4 62 9.95z" fill="#FF5342"/><path d="M17 51h-2v13h2V51zM2 49H0v2h2v-2zm47 2h-2v13h2V51zM33 35h-2v14h2V35zm31 16v-2h-2v2h2z" fill="#758C8E"/><path d="M17 19h-2v14h2V19zm32 0h-2v14h2V19zM33 4h-2v13h2V4z" fill="#BB3C2F"/><path d="M62 51v-2H2v2h60z" fill="#819A9C"/><path d="M62 35v-2H2v2h60zm0-16v-2H2v2h60z" fill="#AD382B"/><g><path d="M63.6 4.7q-.4-1.25-1.1-2.2Q61.2.8 58.75.25q-.9-.2-1.95-.25H7.25Q6.2.05 5.3.25q-4.1.9-5 5Q.05 6.3 0 7.55v27.6q.05 2.4 2 3.6 1.85 1.15 5.45 1.2h49.1q3.6-.05 5.45-1.2 1.95-1.2 2-3.6V7.55q-.05-1.3-.25-2.3-.1-.3-.15-.55zm-2.7-.95V3.7q.5.65.8 1.55.05.25.15.55.1.8.15 1.85v29.1q-1.85 1.15-5.45 1.2H7.45q-3.6-.05-5.45-1.2V7.65q.05-1.05.25-1.9V5.7q.65-2.85 3.5-3.5.7-.15 1.5-.2H56.7q.85.05 1.6.2 1.7.4 2.6 1.55z" fill="#FF5342"/><path d="M60.9 3.7v.05Q60 2.6 58.3 2.2q-.75-.15-1.6-.2H7.25q-.8.05-1.5.2-2.85.65-3.5 3.5v.05q-.2.85-.25 1.9v29.1q1.85 1.15 5.45 1.2h49.1q3.6-.05 5.45-1.2V7.65q-.05-1.05-.15-1.85-.1-.3-.15-.55-.3-.9-.8-1.55zm-3.1 2.6l.05.05.05.05v.2q.05.55.1 1.25v26q-.65.1-1.45.1h-49q-.85 0-1.55-.1v-26q.05-.65.15-1.15 0-.1.05-.2.1-.3.45-.4H6.6Q7 6 7.5 6h49l.9.1q.2.05.35.15.05 0 .05.05zm.05.1l.05.05-.05-.1v.05z" fill="#E74C3C"/><path d="M57.9 6.45V6.4l-.05-.05.05.1z" fill="#CB4234"/><path d="M57.85 6.35l-.05-.05q0-.05-.05-.05-.15-.1-.35-.15l-.9-.1h-49q-.5 0-.9.1h.05q-.35.1-.45.4-.05.1-.05.2-.1.5-.15 1.15v26q.7.1 1.55.1h49q.8 0 1.45-.1v-26q-.05-.7-.1-1.25V6.45l-.05-.05v-.05z" fill="#C64032"/></g></g></symbol></svg>