<?xml version="1.0" standalone="no"?><!-- Generator: Gravit.io --><svg xmlns="http://www.w3.org/2000/svg" xmlns:xlink="http://www.w3.org/1999/xlink" style="isolation:isolate" viewBox="0 0 64 64" width="64" height="64"><defs><clipPath id="_clipPath_UItZHgLI6z4XNK7mJtWMQ1RVkjainTcS"><rect width="64" height="64"/></clipPath></defs><g clip-path="url(#_clipPath_UItZHgLI6z4XNK7mJtWMQ1RVkjainTcS)"><g id="boxGreen"><g id="bP"><path d=" M 64 7.95 Q 64 0 56.05 0 L 7.95 0 Q 0 0 0 7.95 L 0 56.05 Q 0 64 7.95 64 L 56.05 64 Q 64 64 64 56.05 L 64 7.95 M 56.05 2 Q 62 2 62 7.95 L 62 56.05 Q 62 62 56.05 62 L 7.95 62 Q 2 62 2 56.05 L 2 7.95 Q 2 2 7.95 2 L 56.05 2 L 56.05 2 Z " fill="rgb(51,226,125)"/><path d=" M 62 7.95 Q 62 2 56.05 2 L 7.95 2 Q 2 2 2 7.95 L 2 56.05 Q 2 62 7.95 62 L 56.05 62 Q 62 62 62 56.05 L 62 7.95 M 44 10 L 54 10 L 54 54 L 10 54 L 10 10 L 44 10 Z " fill="rgb(46,204,113)"/><path d=" M 54 54 L 54 44 L 44.5 34.5 L 34.5 44.5 L 44 54 L 54 54 Z  M 20 54 L 29.5 44.5 L 19.5 34.5 L 10 44 L 10 54 L 20 54 Z  M 22 32 L 32 42 L 42 32 L 32 22 L 22 32 Z  M 29.5 19.5 L 20 10 L 10 10 L 10 20 L 19.5 29.5 L 29.5 19.5 Z  M 54 10 L 44 10 L 34.5 19.5 L 44.5 29.5 L 54 20 L 54 10 Z " fill="rgb(40,180,98)"/><path d=" M 20 10 L 29.5 19.5 L 19.5 29.5 L 10 20 L 10 44 L 19.5 34.5 L 29.5 44.5 L 20 54 L 44 54 L 34.5 44.5 L 44.5 34.5 L 54 44 L 54 20 L 44.5 29.5 L 34.5 19.5 L 44 10 L 20 10 Z  M 32 42 L 22 32 L 32 22 L 42 32 L 32 42 Z " fill="rgb(20,91,50)"/></g></g></g></svg>