<?xml version="1.0" standalone="no"?><!-- Generator: Gravit.io --><svg xmlns="http://www.w3.org/2000/svg" xmlns:xlink="http://www.w3.org/1999/xlink" style="isolation:isolate" viewBox="0 0 36 36" width="36" height="36"><defs><clipPath id="_clipPath_hAA71swm9nT2qgVHRbJ8t5hYzWBuH9hk"><rect width="36" height="36"/></clipPath></defs><g clip-path="url(#_clipPath_hAA71swm9nT2qgVHRbJ8t5hYzWBuH9hk)"><g id="Group"><path d=" M 36 8 Q 36 8.85 35.4 9.45 Q 34.8 10 34 10 L 2 10 Q 1.15 10 0.55 9.45 Q 0 8.85 0 8 L 0 4.05 Q 0 3.2 0.55 2.6 Q 1.15 2 2 2 L 34 2 Q 34.8 2 35.4 2.6 Q 36 3.2 36 4 L 36 8 Z " fill="rgb(0,0,0)"/><path d=" M 35.4 14.6 Q 36 15.2 36 16 L 36 20 Q 36 20.85 35.4 21.45 Q 34.8 22 34 22 L 2 22 Q 1.15 22 0.55 21.45 Q 0 20.85 0 20 L 0 16.05 Q 0 15.2 0.55 14.6 Q 1.15 14 2 14 L 34 14 Q 34.8 14 35.4 14.6 Z " fill="rgb(0,0,0)"/><path d=" M 0.55 33.45 Q 0 32.85 0 32 L 0 28.05 Q 0 27.2 0.55 26.6 Q 1.15 26 2 26 L 34 26 Q 34.8 26 35.4 26.6 Q 36 27.2 36 28 L 36 32 Q 36 32.85 35.4 33.45 Q 34.8 34 34 34 L 2 34 Q 1.15 34 0.55 33.45 Z " fill="rgb(0,0,0)"/></g></g></svg>