<?xml version="1.0" standalone="no"?><!-- Generator: Gravit.io --><svg xmlns="http://www.w3.org/2000/svg" xmlns:xlink="http://www.w3.org/1999/xlink" style="isolation:isolate" viewBox="0 0 36 36" width="36" height="36"><defs><clipPath id="_clipPath_sTTmE21WETeDrR210BsURHDnSPbfGgx1"><rect width="36" height="36"/></clipPath></defs><g clip-path="url(#_clipPath_sTTmE21WETeDrR210BsURHDnSPbfGgx1)"><g id="Group"><path d=" M 34 4 L 34 8 Q 34 8.85 33.4 9.45 Q 32.8 10 32 10 L 28 10 Q 27.15 10 26.55 9.45 Q 26 8.85 26 8 L 26 4.05 Q 26 3.2 26.55 2.6 Q 27.15 2 28 2 L 32 2 Q 32.8 2 33.4 2.6 Q 34 3.2 34 4 Z " fill="rgb(0,0,0)"/><path d=" M 22 4 L 22 8 Q 22 8.85 21.4 9.45 Q 20.8 10 20 10 L 16 10 Q 15.15 10 14.55 9.45 Q 14 8.85 14 8 L 14 4.05 Q 14 3.2 14.55 2.6 Q 15.15 2 16 2 L 20 2 Q 20.8 2 21.4 2.6 Q 22 3.2 22 4 Z " fill="rgb(0,0,0)"/><path d=" M 28 14 L 32 14 Q 32.8 14 33.4 14.6 Q 34 15.2 34 16 L 34 20 Q 34 20.85 33.4 21.45 Q 32.8 22 32 22 L 28 22 Q 27.15 22 26.55 21.45 Q 26 20.85 26 20 L 26 16.05 Q 26 15.2 26.55 14.6 Q 27.15 14 28 14 Z " fill="rgb(0,0,0)"/><path d=" M 21.4 14.6 Q 22 15.2 22 16 L 22 20 Q 22 20.85 21.4 21.45 Q 20.8 22 20 22 L 16 22 Q 15.15 22 14.55 21.45 Q 14 20.85 14 20 L 14 16.05 Q 14 15.2 14.55 14.6 Q 15.15 14 16 14 L 20 14 Q 20.8 14 21.4 14.6 Z " fill="rgb(0,0,0)"/><path d=" M 34 28 L 34 32 Q 34 32.85 33.4 33.45 Q 32.8 34 32 34 L 28 34 Q 27.15 34 26.55 33.45 Q 26 32.85 26 32 L 26 28.05 Q 26 27.2 26.55 26.6 Q 27.15 26 28 26 L 32 26 Q 32.8 26 33.4 26.6 Q 34 27.2 34 28 Z " fill="rgb(0,0,0)"/><path d=" M 21.4 26.6 Q 22 27.2 22 28 L 22 32 Q 22 32.85 21.4 33.45 Q 20.8 34 20 34 L 16 34 Q 15.15 34 14.55 33.45 Q 14 32.85 14 32 L 14 28.05 Q 14 27.2 14.55 26.6 Q 15.15 26 16 26 L 20 26 Q 20.8 26 21.4 26.6 Z " fill="rgb(0,0,0)"/><path d=" M 10 4 L 10 8 Q 10 8.85 9.4 9.45 Q 8.8 10 8 10 L 4 10 Q 3.15 10 2.55 9.45 Q 2 8.85 2 8 L 2 4.05 Q 2 3.2 2.55 2.6 Q 3.15 2 4 2 L 8 2 Q 8.8 2 9.4 2.6 Q 10 3.2 10 4 Z " fill="rgb(0,0,0)"/><path d=" M 8 14 Q 8.8 14 9.4 14.6 Q 10 15.2 10 16 L 10 20 Q 10 20.85 9.4 21.45 Q 8.8 22 8 22 L 4 22 Q 3.15 22 2.55 21.45 Q 2 20.85 2 20 L 2 16.05 Q 2 15.2 2.55 14.6 Q 3.15 14 4 14 L 8 14 Z " fill="rgb(0,0,0)"/><path d=" M 10 28 L 10 32 Q 10 32.85 9.4 33.45 Q 8.8 34 8 34 L 4 34 Q 3.15 34 2.55 33.45 Q 2 32.85 2 32 L 2 28.05 Q 2 27.2 2.55 26.6 Q 3.15 26 4 26 L 8 26 Q 8.8 26 9.4 26.6 Q 10 27.2 10 28 Z " fill="rgb(0,0,0)"/></g></g></svg>