<?xml version="1.0" standalone="no"?><!-- Generator: Gravit.io --><svg xmlns="http://www.w3.org/2000/svg" xmlns:xlink="http://www.w3.org/1999/xlink" style="isolation:isolate" viewBox="0 0 36 36" width="36" height="36"><defs><clipPath id="_clipPath_S0w8l8c1PGgZQs74AI8YKFioDMUC1X55"><rect width="36" height="36"/></clipPath></defs><g clip-path="url(#_clipPath_S0w8l8c1PGgZQs74AI8YKFioDMUC1X55)"><g id="Group"><path d=" M 14.45 9.55 Q 13 8.05 13 6 Q 13 3.95 14.45 2.5 Q 15.95 1 18 1 Q 20.1 1 21.55 2.5 L 21.5 2.5 Q 23 4 23 6 Q 23 8.15 21.5 9.6 L 21.5 9.55 Q 20.05 11 18 11 Q 15.9 11 14.45 9.55 Z " fill="rgb(0,0,0)"/><path d=" M 20 13 Q 21.2 13 22.1 13.9 Q 23 14.8 23 16 L 23 29 L 24 29 Q 25.2 29 26.1 29.9 Q 27 30.8 27 32 L 27 34 L 26.7 34.7 L 26 35 L 10 35 Q 9.6 35 9.3 34.7 Q 9 34.4 9 34 L 9 32.05 Q 9 30.8 9.85 29.95 L 9.85 29.9 Q 10.75 29 12 29 L 13 29 L 13 19 L 10 19 Q 9.6 19 9.3 18.7 Q 9 18.4 9 18 L 9 14 Q 9 13.6 9.3 13.3 Q 9.6 13 10 13 L 20 13 Z " fill="rgb(0,0,0)"/></g></g></svg>