<?xml version="1.0" standalone="no"?><!-- Generator: Gravit.io --><svg xmlns="http://www.w3.org/2000/svg" xmlns:xlink="http://www.w3.org/1999/xlink" style="isolation:isolate" viewBox="0 0 36 36" width="36" height="36"><defs><clipPath id="_clipPath_VfQGnN0j4R3aCZpwtbYuLJiga8n08tt7"><rect width="36" height="36"/></clipPath></defs><g clip-path="url(#_clipPath_VfQGnN0j4R3aCZpwtbYuLJiga8n08tt7)"><path d=" M 4 14 L 14 14 L 14 4.05 Q 14 3.2 14.55 2.6 Q 15.15 2 16 2 L 20 2 Q 20.8 2 21.4 2.6 Q 22 3.2 22 4 L 22 14 L 32 14 Q 32.8 14 33.4 14.6 Q 34 15.2 34 16 L 34 20 Q 34 20.85 33.4 21.45 Q 32.8 22 32 22 L 22 22 L 22 32 Q 22 32.85 21.4 33.45 Q 20.8 34 20 34 L 16 34 Q 15.15 34 14.55 33.45 Q 14 32.85 14 32 L 14 22 L 4 22 Q 3.15 22 2.55 21.45 Q 2 20.85 2 20 L 2 16.05 Q 2 15.2 2.55 14.6 Q 3.15 14 4 14 Z " fill="rgb(0,0,0)"/></g></svg>