<?xml version="1.0" standalone="no"?><!-- Generator: Gravit.io --><svg xmlns="http://www.w3.org/2000/svg" xmlns:xlink="http://www.w3.org/1999/xlink" style="isolation:isolate" viewBox="0 0 36 36" width="36" height="36"><defs><clipPath id="_clipPath_rOjl14U6t9dMH08XJLSGUnnoCZGFam85"><rect width="36" height="36"/></clipPath></defs><g clip-path="url(#_clipPath_rOjl14U6t9dMH08XJLSGUnnoCZGFam85)"><path d=" M 27.85 0.025 Q 30.8 0.025 32.9 2.075 Q 35 4.175 35 7.225 Q 35 10.175 32.9 12.275 Q 30.8 14.375 27.85 14.375 Q 24.85 14.375 22.75 12.275 L 22.2 11.675 L 15.2 16.525 L 15.35 17.975 L 15.1 19.875 L 22.15 24.375 L 22.75 23.675 Q 24.85 21.575 27.85 21.575 Q 30.8 21.575 32.9 23.675 Q 35 25.775 35 28.775 Q 35 31.775 32.9 33.875 Q 30.8 35.975 27.85 35.975 Q 24.85 35.975 22.75 33.875 Q 20.7 31.775 20.7 28.775 L 20.8 27.725 L 13.3 22.975 L 13.2 23.075 Q 11.1 25.175 8.15 25.175 Q 5.15 25.175 3.05 23.075 Q 1 20.975 1 17.975 Q 1 14.975 3.05 12.875 Q 5.15 10.775 8.15 10.775 Q 11.1 10.775 13.2 12.875 L 13.6 13.275 L 20.8 8.375 L 20.7 7.225 Q 20.7 4.175 22.75 2.075 Q 24.85 0.025 27.85 0.025 Z " fill="rgb(0,0,0)"/></g></svg>