<?xml version="1.0" standalone="no"?><!-- Generator: Gravit.io --><svg xmlns="http://www.w3.org/2000/svg" xmlns:xlink="http://www.w3.org/1999/xlink" style="isolation:isolate" viewBox="0 0 36 36" width="36" height="36"><defs><clipPath id="_clipPath_8NxfyTERwPKf307Xff8cyJXQUljud18s"><rect width="36" height="36"/></clipPath></defs><g clip-path="url(#_clipPath_8NxfyTERwPKf307Xff8cyJXQUljud18s)"><path d=" M 30.926 10.151 L 31.976 12.101 L 32.026 12.201 Q 35.176 18.451 31.476 24.951 Q 27.776 31.751 20.426 32.001 Q 19.826 32.051 19.326 31.651 Q 18.876 31.251 18.826 30.601 Q 18.276 27.001 18.376 25.301 Q 18.426 24.701 18.776 24.251 Q 19.176 23.801 19.826 23.801 Q 22.876 23.551 24.426 20.951 L 24.376 21.001 Q 25.876 18.501 24.776 16.001 Q 23.326 12.601 19.876 12.401 L 19.826 12.401 Q 17.376 12.351 15.626 14.101 Q 18.076 15.501 19.076 16.401 Q 19.476 16.751 19.576 17.251 L 19.526 18.251 L 18.826 19.001 L 4.926 27.051 L 3.826 27.201 Q 3.276 27.151 2.876 26.701 L 2.526 25.701 L 2.576 9.401 L 2.776 8.551 L 3.376 7.951 L 3.426 7.901 L 4.176 7.701 L 4.926 7.901 L 8.426 9.901 Q 10.326 7.351 12.676 6.001 L 12.676 5.951 Q 17.426 3.101 22.576 4.401 Q 27.526 5.601 30.776 10.001 L 30.926 10.151 Z " fill="rgb(0,0,0)"/></g></svg>