<?xml version="1.0" standalone="no"?><!-- Generator: Gravit.io --><svg xmlns="http://www.w3.org/2000/svg" xmlns:xlink="http://www.w3.org/1999/xlink" style="isolation:isolate" viewBox="0 0 36 36" width="36" height="36"><defs><clipPath id="_clipPath_jpCcLuDec657fw1oCNcOekT2Gz9gaGMT"><rect width="36" height="36"/></clipPath></defs><g clip-path="url(#_clipPath_jpCcLuDec657fw1oCNcOekT2Gz9gaGMT)"><g id="Group"><path d=" M 30 2 Q 30.85 2 31.45 2.6 Q 32 3.2 32 4.05 L 32 32 Q 32 32.85 31.45 33.45 Q 30.85 34 30 34 L 28 34 L 12 18 L 28 2 L 30 2 Z " fill="rgb(0,0,0)"/><path d=" M 4 4 Q 4 3.2 4.6 2.6 Q 5.2 2 6 2 L 10 2 Q 10.85 2 11.45 2.6 Q 12 3.2 12 4.05 L 12 18 L 12 32 Q 12 32.85 11.45 33.45 Q 10.85 34 10 34 L 6 34 Q 5.2 34 4.6 33.45 Q 4 32.85 4 32 L 4 4 Z " fill="rgb(0,0,0)"/></g></g></svg>