<?xml version="1.0" standalone="no"?><!-- Generator: Gravit.io --><svg xmlns="http://www.w3.org/2000/svg" xmlns:xlink="http://www.w3.org/1999/xlink" style="isolation:isolate" viewBox="0 0 64 64" width="64" height="64"><defs><clipPath id="_clipPath_2i67wSxZUoyy3FqIQ8bbhSGGfc6ouhnc"><rect width="64" height="64"/></clipPath></defs><g clip-path="url(#_clipPath_2i67wSxZUoyy3FqIQ8bbhSGGfc6ouhnc)"><g id="playerLeft"><path d=" M 16.333 11.596 L 16.083 16.646 Q 12.483 17.046 8.933 19.296 Q 8.533 19.546 8.283 19.996 Q 8.033 20.396 7.983 20.896 Q 7.833 23.196 9.383 24.396 Q 10.483 25.496 12.933 25.596 L 16.933 25.846 Q 16.833 27.496 16.883 29.146 L 16.883 29.296 Q 16.083 29.646 15.383 30.346 L 15.333 30.396 Q 13.883 31.846 13.883 33.796 Q 13.533 35.446 15.983 36.446 Q 16.083 36.496 16.133 36.496 Q 16.283 36.546 16.483 36.596 Q 16.433 36.896 16.433 37.196 Q 16.333 38.696 17.633 39.746 Q 16.683 41.946 16.483 44.946 Q 16.383 46.496 16.483 48.296 Q 16.483 48.496 16.533 48.696 L 16.633 49.496 Q 16.633 49.596 16.683 49.746 Q 16.683 49.896 16.733 50.096 L 16.833 50.496 Q 17.833 54.946 22.883 54.946 L 27.983 54.946 Q 28.183 55.746 28.883 56.596 L 29.033 56.746 Q 29.633 57.296 30.733 57.946 Q 30.883 57.996 31.083 58.096 L 32.183 58.496 Q 32.233 58.496 32.283 58.546 Q 33.933 58.996 36.083 58.996 Q 38.183 58.996 39.933 58.546 Q 39.983 58.496 40.083 58.496 L 41.083 58.096 Q 41.383 57.996 41.583 57.896 L 41.633 57.896 Q 44.083 56.596 44.233 54.946 L 47.383 54.946 Q 51.133 54.946 52.583 52.346 Q 52.933 51.746 53.183 50.996 Q 53.333 50.496 53.433 49.846 Q 53.583 49.146 53.633 48.446 Q 53.983 43.696 52.783 40.396 Q 53.183 39.946 53.483 39.396 Q 53.833 38.696 54.083 37.796 L 54.083 37.746 Q 54.183 37.346 54.283 36.846 L 54.283 36.746 Q 54.883 32.996 54.933 29.246 L 54.933 29.196 Q 54.983 27.596 54.933 26.096 Q 55.683 25.096 55.783 23.596 L 55.933 21.446 L 55.933 21.296 Q 57.333 7.746 38.433 5.296 Q 38.383 5.246 38.333 5.246 Q 31.133 4.696 23.683 5.396 Q 17.683 5.846 16.533 10.846 Q 16.333 11.146 16.333 11.596 L 16.333 11.596 Z " fill="rgb(105,76,57)"/><g id="z"><path d=" M 21.683 37.396 Q 18.833 39.946 18.483 45.046 Q 30.333 45.046 33.533 37.396 L 21.683 37.396 Z " fill="rgb(46,204,113)"/><path d=" M 18.783 49.996 Q 19.483 52.946 22.883 52.946 L 47.383 52.946 Q 49.883 52.946 50.883 51.296 Q 51.133 50.896 51.283 50.346 Q 51.383 50.046 51.433 49.596 Q 51.583 48.946 51.633 48.296 Q 52.183 40.946 48.533 37.396 L 33.533 37.396 Q 30.333 45.046 18.483 45.046 Q 18.383 46.546 18.483 48.246 L 18.483 48.296 Q 18.583 48.796 18.633 49.246 Q 18.683 49.446 18.683 49.596 L 18.783 49.996 L 18.783 49.996 Z " fill="rgb(231,76,60)"/></g><path d=" M 29.933 53.996 L 29.933 54.446 Q 30.033 54.846 30.383 55.246 Q 30.883 55.696 31.733 56.196 L 32.833 56.596 Q 34.233 56.996 36.083 56.996 Q 37.883 56.996 39.383 56.596 Q 39.933 56.396 40.433 56.196 Q 40.583 56.146 40.683 56.096 Q 42.133 55.346 42.233 54.446 L 42.233 54.196 Q 42.283 54.146 42.283 53.996 Q 42.283 51.896 40.433 50.446 Q 38.633 48.946 36.083 48.946 Q 33.533 48.946 31.733 50.446 Q 29.933 51.896 29.933 53.996 Z " fill="rgb(51,51,51)"/><path d=" M 44.633 40.296 Q 44.383 39.996 44.083 39.746 Q 42.983 38.846 41.783 38.546 Q 41.083 38.346 40.083 38.446 Q 38.083 38.646 36.633 40.146 Q 35.183 42.146 35.283 46.096 Q 35.333 46.396 35.333 46.746 Q 35.483 48.246 37.083 47.946 Q 38.683 47.646 40.833 47.746 Q 43.033 47.846 44.133 48.296 Q 45.133 48.646 45.783 45.246 Q 46.083 42.246 44.633 40.296 Z " fill="rgb(46,204,113)"/><path d=" M 35.833 44.796 Q 35.683 45.046 35.433 45.296 Q 35.483 45.346 35.433 45.446 Q 35.383 45.446 35.383 45.546 Q 34.783 46.596 35.633 48.146 Q 36.583 49.846 38.533 50.896 Q 40.483 52.096 42.333 52.046 Q 44.083 52.096 44.783 50.946 Q 44.883 50.896 44.933 50.746 Q 45.083 50.446 45.233 50.246 Q 46.083 48.496 45.583 46.646 Q 45.183 45.296 44.383 44.346 Q 43.933 43.746 43.033 43.196 Q 41.083 42.046 38.683 42.696 Q 36.883 43.146 35.833 44.796 L 35.833 44.796 Z " fill="rgb(255,224,177)"/><g id="D"><path d=" M 52.933 25.996 Q 52.783 22.796 52.283 19.596 Q 52.083 17.846 51.183 16.896 Q 50.133 15.796 48.233 15.796 L 37.583 15.796 Q 35.883 34.496 52.283 36.596 L 52.283 36.496 Q 52.883 32.846 52.933 29.146 Q 52.983 27.546 52.933 25.996 L 52.933 25.996 Z " fill="rgb(105,76,57)"/><path d=" M 18.933 25.346 Q 18.833 27.246 18.883 29.146 L 18.883 29.746 Q 18.983 32.996 19.383 36.096 Q 19.433 36.296 19.433 36.496 Q 19.483 36.696 19.533 36.946 Q 20.233 40.196 23.683 40.196 L 48.233 40.196 Q 50.733 40.196 51.733 38.396 Q 51.983 37.946 52.133 37.296 Q 52.233 36.996 52.283 36.596 Q 35.883 34.496 37.583 15.796 L 23.683 15.796 Q 21.633 15.796 20.583 16.896 Q 19.733 17.846 19.483 19.496 Q 19.133 22.446 18.933 25.346 L 18.933 25.346 Z " fill="rgb(255,224,177)"/></g><path d=" M 29.933 32.896 Q 30.733 32.896 31.333 31.996 Q 31.933 31.196 31.933 29.846 Q 31.933 28.546 31.333 27.746 Q 30.733 26.846 29.933 26.846 Q 29.083 26.846 28.533 27.746 Q 27.933 28.546 27.933 29.846 Q 27.933 31.196 28.533 31.996 Q 29.083 32.896 29.933 32.896 Z " fill="rgb(105,76,57)"/><path d=" M 21.033 34.596 Q 21.933 34.246 21.933 33.796 Q 21.833 32.646 21.033 31.796 Q 20.133 30.896 18.883 30.896 Q 17.683 30.896 16.733 31.796 Q 15.883 32.646 15.883 33.796 Q 15.883 34.246 16.733 34.596 Q 17.683 34.896 18.883 34.896 Q 20.133 34.896 21.033 34.596 Z " fill="rgb(255,224,177)"/><path d=" M 26.883 34.196 Q 24.783 32.896 21.933 32.896 Q 21.633 32.896 21.333 32.946 Q 20.183 33.046 19.333 34.196 Q 18.433 35.446 18.433 37.196 Q 18.433 37.946 19.333 38.396 Q 20.183 38.846 21.333 38.896 L 21.933 38.896 Q 24.783 38.896 26.883 38.396 Q 28.933 37.946 28.933 37.196 Q 28.733 35.446 26.883 34.196 Z " fill="rgb(105,76,57)"/><g id="H"><path d=" M 25.883 18.796 Q 22.083 18.546 17.983 18.496 Q 13.983 18.496 9.983 20.996 Q 9.833 23.446 13.033 23.596 L 50.383 25.696 Q 53.683 25.896 53.783 23.446 Q 41.783 19.846 25.883 18.796 L 25.883 18.796 Z " fill="rgb(46,204,113)"/><path d=" M 18.283 12.496 Q 21.583 12.646 23.833 14.696 Q 25.733 16.446 25.883 18.796 Q 41.783 19.846 53.783 23.446 L 53.933 21.296 L 53.933 21.096 Q 54.883 9.446 38.183 7.246 Q 31.133 6.696 23.883 7.396 Q 19.183 7.746 18.383 11.696 L 18.333 11.696 L 18.283 12.496 L 18.283 12.496 Z " fill="rgb(40,177,98)"/><path d=" M 23.833 14.696 Q 21.583 12.646 18.283 12.496 L 17.983 18.496 Q 22.083 18.546 25.883 18.796 Q 25.733 16.446 23.833 14.696 L 23.833 14.696 Z " fill="rgb(255,255,255)"/></g><path d=" M 42.483 27.846 Q 40.633 27.846 39.283 28.946 Q 37.983 30.146 37.983 31.946 Q 37.983 33.546 39.283 34.646 Q 40.633 35.896 42.483 35.896 Q 44.283 35.896 45.583 34.646 Q 46.883 33.596 46.883 31.946 L 46.883 31.796 Q 46.883 30.146 45.583 28.946 Q 44.283 27.846 42.483 27.846 Z " fill="rgb(255,224,177)"/></g></g></svg>