<?xml version="1.0" standalone="no"?><!-- Generator: Gravit.io --><svg xmlns="http://www.w3.org/2000/svg" xmlns:xlink="http://www.w3.org/1999/xlink" style="isolation:isolate" viewBox="0 0 64 64" width="64" height="64"><defs><clipPath id="_clipPath_YcgcUPd612urJeZzTwW2H8ov5gtZKjYt"><rect width="64" height="64"/></clipPath></defs><g clip-path="url(#_clipPath_YcgcUPd612urJeZzTwW2H8ov5gtZKjYt)"><g id="playerRight"><path d=" M 40.267 5.396 Q 32.867 4.696 25.667 5.246 Q 25.617 5.246 25.567 5.296 Q 6.667 7.746 8.067 21.296 L 8.067 21.446 L 8.217 23.596 Q 8.317 25.096 9.067 26.096 Q 9.017 27.596 9.067 29.246 Q 9.117 32.946 9.717 36.596 Q 9.717 36.696 9.767 36.796 L 9.767 36.846 Q 9.817 37.346 9.917 37.746 Q 9.917 37.796 9.967 37.846 L 9.967 37.946 Q 10.167 38.746 10.517 39.396 Q 10.817 39.946 11.267 40.396 Q 10.017 43.696 10.367 48.446 Q 10.417 49.146 10.567 49.846 Q 10.667 50.496 10.817 50.996 Q 11.067 51.746 11.417 52.346 Q 12.867 54.946 16.617 54.946 L 19.767 54.946 Q 19.917 56.596 22.417 57.896 Q 22.617 57.996 22.967 58.096 Q 23.417 58.296 23.967 58.496 Q 24.017 58.496 24.117 58.546 Q 25.817 58.996 27.917 58.996 Q 30.067 58.996 31.717 58.546 Q 31.767 58.496 31.867 58.496 L 32.967 58.096 Q 33.117 57.996 33.317 57.946 Q 34.367 57.296 34.967 56.746 L 35.117 56.596 Q 35.817 55.746 36.017 54.946 L 41.117 54.946 Q 46.167 54.946 47.167 50.446 Q 47.217 50.246 47.267 50.096 Q 47.317 49.896 47.317 49.746 Q 47.367 49.596 47.367 49.496 L 47.467 48.696 Q 47.517 48.496 47.517 48.296 Q 47.617 46.496 47.517 44.946 Q 47.317 41.946 46.367 39.746 Q 47.667 38.696 47.567 37.196 L 47.567 36.596 L 47.867 36.496 Q 47.917 36.496 48.017 36.446 Q 50.467 35.446 50.117 33.796 Q 50.117 31.846 48.717 30.396 L 48.667 30.346 Q 47.917 29.646 47.117 29.296 L 47.117 29.146 Q 47.167 27.496 47.117 25.846 L 51.117 25.596 Q 53.517 25.496 54.617 24.396 Q 56.167 23.196 56.017 20.896 Q 55.967 20.396 55.767 19.996 Q 55.467 19.546 55.067 19.296 Q 51.517 17.046 47.917 16.646 L 47.667 11.596 Q 47.667 11.146 47.467 10.846 Q 46.317 5.846 40.267 5.396 L 40.267 5.396 Z " fill="rgb(105,76,57)"/><g id="ai"><path d=" M 45.517 45.046 Q 45.167 39.946 42.317 37.396 L 30.467 37.396 Q 33.667 45.046 45.517 45.046 Z " fill="rgb(46,204,113)"/><path d=" M 15.467 37.396 Q 11.817 40.946 12.367 48.296 Q 12.417 48.946 12.567 49.596 Q 12.617 50.046 12.717 50.346 Q 12.867 50.896 13.117 51.296 Q 14.117 52.946 16.617 52.946 L 41.117 52.946 Q 44.517 52.946 45.217 49.996 L 45.317 49.596 Q 45.317 49.446 45.367 49.246 Q 45.417 48.796 45.517 48.296 L 45.517 48.246 Q 45.617 46.546 45.517 45.046 Q 33.667 45.046 30.467 37.396 L 15.467 37.396 L 15.467 37.396 Z " fill="rgb(231,76,60)"/></g><path d=" M 27.917 48.946 Q 25.367 48.946 23.567 50.446 Q 21.717 51.896 21.717 53.996 Q 21.717 54.146 21.767 54.196 L 21.767 54.446 Q 21.867 55.346 23.317 56.096 Q 23.417 56.146 23.567 56.196 Q 24.067 56.396 24.617 56.596 Q 26.117 56.996 27.917 56.996 Q 29.767 56.996 31.167 56.596 L 32.267 56.196 Q 33.117 55.696 33.617 55.246 Q 33.967 54.846 34.067 54.446 L 34.067 54.196 L 34.067 53.996 Q 34.067 51.896 32.267 50.446 Q 30.467 48.946 27.917 48.946 Z " fill="rgb(51,51,51)"/><path d=" M 23.917 38.446 Q 22.917 38.346 22.217 38.546 Q 21.017 38.846 19.917 39.746 Q 19.617 39.996 19.367 40.296 Q 17.917 42.246 18.217 45.246 Q 18.867 48.646 19.867 48.296 Q 20.967 47.846 23.167 47.746 Q 25.317 47.646 26.917 47.946 Q 28.517 48.246 28.667 46.746 Q 28.667 46.396 28.717 46.096 Q 28.817 42.146 27.367 40.146 Q 25.917 38.646 23.917 38.446 Z " fill="rgb(46,204,113)"/><path d=" M 20.967 43.196 Q 20.067 43.746 19.617 44.346 Q 18.817 45.296 18.417 46.646 Q 17.917 48.496 18.767 50.246 Q 18.917 50.446 19.067 50.746 Q 19.117 50.896 19.217 50.946 Q 19.917 52.096 21.667 52.046 Q 23.517 52.096 25.467 50.896 Q 27.417 49.846 28.367 48.146 Q 29.217 46.596 28.617 45.546 Q 28.617 45.446 28.567 45.446 Q 28.517 45.346 28.567 45.296 Q 28.317 45.046 28.167 44.796 Q 27.117 43.146 25.317 42.696 Q 22.917 42.046 20.967 43.196 L 20.967 43.196 Z " fill="rgb(255,224,177)"/><g id="am"><path d=" M 26.417 15.796 L 15.767 15.796 Q 13.867 15.796 12.817 16.896 Q 11.917 17.846 11.717 19.596 Q 11.217 22.796 11.067 25.996 Q 11.017 27.546 11.067 29.146 Q 11.117 32.846 11.717 36.496 L 11.717 36.596 Q 28.117 34.496 26.417 15.796 L 26.417 15.796 Z " fill="rgb(105,76,57)"/><path d=" M 45.067 25.346 Q 44.867 22.446 44.517 19.496 Q 44.267 17.846 43.417 16.896 Q 42.367 15.796 40.317 15.796 L 26.417 15.796 Q 28.117 34.496 11.717 36.596 Q 11.767 36.996 11.867 37.296 Q 12.017 37.946 12.267 38.396 Q 13.267 40.196 15.767 40.196 L 40.317 40.196 Q 43.767 40.196 44.467 36.946 Q 44.517 36.696 44.567 36.496 Q 44.567 36.296 44.617 36.096 Q 45.017 32.996 45.117 29.746 L 45.117 29.146 Q 45.167 27.246 45.067 25.346 L 45.067 25.346 Z " fill="rgb(255,224,177)"/></g><path d=" M 32.667 31.996 Q 33.267 32.896 34.067 32.896 Q 34.917 32.896 35.467 31.996 Q 36.067 31.196 36.067 29.846 Q 36.067 28.546 35.467 27.746 Q 34.917 26.846 34.067 26.846 Q 33.267 26.846 32.667 27.746 Q 32.067 28.546 32.067 29.846 Q 32.067 31.196 32.667 31.996 Z " fill="rgb(105,76,57)"/><path d=" M 42.067 33.796 Q 42.067 34.246 42.967 34.596 Q 43.867 34.896 45.117 34.896 Q 46.317 34.896 47.267 34.596 Q 48.117 34.246 48.117 33.796 Q 48.117 32.646 47.267 31.796 Q 46.317 30.896 45.117 30.896 Q 43.867 30.896 42.967 31.796 Q 42.167 32.646 42.067 33.796 Z " fill="rgb(255,224,177)"/><path d=" M 42.067 38.896 L 42.667 38.896 Q 43.817 38.846 44.667 38.396 Q 45.567 37.946 45.567 37.196 Q 45.567 35.446 44.667 34.196 Q 43.817 33.046 42.667 32.946 Q 42.367 32.896 42.067 32.896 Q 39.217 32.896 37.117 34.196 Q 35.267 35.446 35.067 37.196 Q 35.067 37.946 37.117 38.396 Q 39.217 38.896 42.067 38.896 Z " fill="rgb(105,76,57)"/><g id="aq"><path d=" M 46.017 18.496 Q 41.917 18.546 38.117 18.796 Q 22.217 19.846 10.217 23.446 Q 10.317 25.896 13.617 25.696 L 50.967 23.596 Q 54.167 23.446 54.017 20.996 Q 50.017 18.496 46.017 18.496 L 46.017 18.496 Z " fill="rgb(46,204,113)"/><path d=" M 45.717 12.496 Q 42.417 12.646 40.167 14.696 Q 38.267 16.446 38.117 18.796 Q 41.917 18.546 46.017 18.496 L 45.717 12.496 L 45.717 12.496 Z " fill="rgb(255,255,255)"/><path d=" M 45.617 11.696 Q 44.817 7.746 40.117 7.396 Q 32.867 6.696 25.817 7.246 Q 9.117 9.446 10.067 21.096 L 10.067 21.296 L 10.217 23.446 Q 22.217 19.846 38.117 18.796 Q 38.267 16.446 40.167 14.696 Q 42.417 12.646 45.717 12.496 L 45.667 11.696 L 45.617 11.696 L 45.617 11.696 Z " fill="rgb(40,177,98)"/></g><path d=" M 21.517 27.846 Q 19.717 27.846 18.417 28.946 Q 17.117 30.146 17.117 31.796 L 17.117 31.946 Q 17.117 33.596 18.417 34.646 Q 19.717 35.896 21.517 35.896 Q 23.367 35.896 24.717 34.646 Q 26.017 33.546 26.017 31.946 Q 26.017 30.146 24.717 28.946 Q 23.367 27.846 21.517 27.846 Z " fill="rgb(255,224,177)"/></g></g></svg>