<?xml version="1.0" standalone="no"?><svg xmlns="http://www.w3.org/2000/svg" xmlns:xlink="http://www.w3.org/1999/xlink"><symbol style="isolation:isolate" viewBox="592 -16.95 64 80.95" id="box3dBlue" xmlns="http://www.w3.org/2000/svg"><path d="M592.3 5.3q-.25 1.05-.3 2.3v48.85q.05 1.25.3 2.3.9 4.05 5 5 1 .2 2.15.25h49.15q1.2-.05 2.15-.25 4.05-.95 5-5 .2-1.05.25-2.3V7.6q-.05-1.3-.25-2.3-.1-.3-.15-.55-.4-1.25-1.1-2.2-1.3-1.7-3.75-2.25-.9-.2-1.95-.25h-49.55Q598.2.1 597.3.3q-4.1.9-5 5m1.95.5v-.05q.65-2.85 3.5-3.5.7-.15 1.5-.2h49.45q.85.05 1.6.2 1.7.4 2.6 1.55v-.05q.5.65.8 1.55.05.25.15.55.1.8.15 1.85v48.7q-.05 1.05-.2 2v-.1q-.65 2.85-3.5 3.5h.05q-.8.15-1.75.2h-49.05q-1-.05-1.85-.2h.05q-2.85-.65-3.5-3.45v-.05q-.2-.85-.25-1.85V7.7q.05-1.05.25-1.9z" fill="#3FA8E5"/><path d="M594.25 5.75v.05q-.2.85-.25 1.9v48.75q.05 1 .25 1.85v.05q.65 2.8 3.5 3.45h-.05q.85.15 1.85.2h49.05q.95-.05 1.75-.2h-.05q2.85-.65 3.5-3.5v.1q.15-.95.2-2V7.7q-.05-1.05-.15-1.85-.1-.3-.15-.55-.3-.9-.8-1.55v.05q-.9-1.15-2.6-1.55-.75-.15-1.6-.2h-49.45q-.8.05-1.5.2-2.85.65-3.5 3.5M602 6h44v28h-44V6zm44 37v15h-44V43h44zm-5-14.7h-4v2.5h4v-2.5zm-4-19.1v2.55h4V9.2h-4m-26 19.1h-4v2.5h4v-2.5zm0-16.55V9.2h-4v2.55h4z" fill="#2F95D0"/><path d="M646 58V43h-44v15h44zm0-52h-44v28h44V6zm-35 3.2v2.55h-4V9.2h4zm-4 19.1h4v2.5h-4v-2.5zm30-16.55V9.2h4v2.55h-4m0 16.55h4v2.5h-4v-2.5z" fill="#2678A8"/><g fill-opacity=".102"><path d="M648.55 40q7.35-.15 7.45-4.8v-2q-.1 4.65-7.45 4.8h-49.1q-7.35-.15-7.45-4.8v2q.1 4.65 7.45 4.8h49.1z" fill="#FFF"/><path d="M656 35.2q-.1 4.65-7.45 4.8h-49.1q-7.35-.15-7.45-4.8v21.25q.05 1.25.3 2.3.9 4.05 5 5 1 .2 2.15.25h49.15q1.2-.05 2.15-.25 4.05-.95 5-5 .2-1.05.25-2.3V35.2z"/></g></symbol><symbol style="isolation:isolate" viewBox="743 358 56 73" id="dotBrown" xmlns="http://www.w3.org/2000/svg"><path d="M797 423.05V409h-4v14.05q0 1.95-1.95 1.95H777v4h14.05q5.95 0 5.95-5.95zm0-26.05v-14.05q0-5.95-5.95-5.95H777v4h14.05q1.95 0 1.95 1.95V397h4zm-48 12h-4v14.05q0 5.95 5.95 5.95H765v-4h-14.05q-1.95 0-1.95-1.95V409zm0-12v-14.05q0-1.95 1.95-1.95H765v-4h-14.05q-5.95 0-5.95 5.95V397h4z" fill="#986735"/><path d="M799 423.05V409h-2v14.05q0 5.95-5.95 5.95H777v2h14.05q7.95 0 7.95-7.95zM791.05 375H777v2h14.05q5.95 0 5.95 5.95V397h2v-14.05q0-7.95-7.95-7.95zM745 423.05V409h-2v14.05q0 7.95 7.95 7.95H765v-2h-14.05q-5.95 0-5.95-5.95zm0-26.05v-14.05q0-5.95 5.95-5.95H765v-2h-14.05q-7.95 0-7.95 7.95V397h2z" fill="#D9944E"/></symbol><symbol style="isolation:isolate" viewBox="814 427 64 81" id="floorGrey" xmlns="http://www.w3.org/2000/svg"><path d="M874.7 494.2q-.6.45-2.05 1.85-1.35 1.45-1.8 2-.75 1.05-.7 1.8-.05.8.7 1.8.45.6 1.8 2.05 1.45 1.4 2.05 1.8 1 .75 1.8.7.65.05 1.5-.5V494q-.85-.5-1.5-.5-.8 0-1.8.7zm3.3-46.65q-.05 0-.05.05-.2.15-.3.35l-.1.1q-1.15 1.35-1.2 2.45-.15 1.15.85 2.65.25.45.75 1.1l.05.05v-6.75zm-58.5 59.3q-.55.35-1.5 1.15h7.4q-.45-.5-.75-.75-1.4-1.2-2.5-1.2-1.15-.15-2.65.8m-1.35-8.8q-.4-.55-1.8-2-1.5-1.4-2.05-1.85l-.3-.2v11.75q.15-.1.3-.25.55-.4 2.05-1.8 1.4-1.5 1.8-2.05.75-1 .7-1.8.05-.75-.7-1.8m40.05-13.35q-.65.7-1.15 1.25-1 1.1-1.45 1.7-1.1 1.45-1.05 2.55-.05 1.15 1.05 2.6.65.9 2.6 2.95 2.05 1.95 2.95 2.65 1.45 1.05 2.55 1 1.15.05 2.6-1 .85-.65 2.95-2.65 2-2.05 2.65-2.95 1.05-1.45 1-2.6.05-1.1-1-2.55-.45-.6-1.45-1.7-.55-.55-1.2-1.25-2.1-2-2.95-2.65-1.45-1.05-2.6-1-1.1-.05-2.55 1-.9.7-2.95 2.65m.7-31.25q-1.45-1.4-2.05-1.8-1-.75-1.8-.75-.75 0-1.75.75-.6.4-2.05 1.8-1.4 1.45-1.85 2.05-.7 1-.7 1.75 0 .8.7 1.8.45.6 1.85 2.05 1.45 1.4 2.05 1.85 1 .7 1.75.7.8 0 1.8-.7.6-.45 2.05-1.85 1.4-1.45 1.8-2.05.75-1 .7-1.8.05-.75-.7-1.75-.4-.55-1.8-2.05zM818 444q-.7.5-1.65 1.25-1.6 1.45-2.35 2.3v6.75q.6.8 1.55 2 1.95 2.15 2.75 2.85 1.35 1.15 2.5 1.2 1.1.1 2.65-.85.95-.6 3.1-2.4 2.15-1.9 2.85-2.75 1.15-1.35 1.2-2.5.15-1.1-.8-2.65-.3-.45-.85-1.25-.65-.8-1.55-1.9-1.2-1.3-2-2.05H818z" fill="#849EA1"/><path d="M861.1 506.45q-.85.85-1.45 1.55h13.95q-.65-.7-1.45-1.55-2.1-2-2.95-2.6-1.45-1.05-2.6-1.05-1.1 0-2.55 1.05-.9.65-2.95 2.6m-14.85-9.9q-2.05-1.5-3.65-1.45-1.55-.05-3.6 1.45-1.2.9-4.15 3.7-2.8 2.95-3.7 4.2-1.5 2-1.45 3.55h25.85q.05-1.55-1.45-3.55-.9-1.25-3.7-4.2-2.95-2.8-4.15-3.7m7.65-48.6l.2-.3q1.5-2.05 1.45-3.65H829.7q-.05 1.6 1.45 3.65.1.15.25.3.95 1.25 3.45 3.85 2.95 2.8 4.15 3.7 2.05 1.5 3.6 1.45 1.6.05 3.65-1.45 1.2-.9 4.15-3.7 2.5-2.6 3.5-3.85m24.1 9.6h-.05q-2.05-1.55-3.7-1.5-1.65-.05-3.75 1.5-1.3.95-4.35 3.85-2.9 3.05-3.85 4.35-1.55 2.15-1.5 3.8-.05 1.65 1.5 3.75.95 1.3 3.85 4.35 3.05 2.9 4.35 3.85 2.1 1.55 3.75 1.5 1.65.05 3.75-1.45v-24zm-2.2-9.6q0-1.15-1.05-2.55-.35-.5-1.2-1.4H859.7q-.85.9-1.25 1.4-1.05 1.4-1 2.55v.05q-.05 1.1 1 2.55.65.9 2.65 2.95 2.05 2 2.95 2.65 1.45 1.05 2.55 1 1.15.05 2.6-1 .85-.65 2.95-2.65 1.95-2.05 2.6-2.95 1.05-1.45 1.05-2.55v-.05zm-57.45 13.45q-3.1-2.95-4.3-3.85H814v24l.05-.05q1.2-.9 4.3-3.85 2.9-3.05 3.85-4.35 1.55-2.1 1.5-3.75.05-1.65-1.5-3.8-.95-1.3-3.85-4.35m20.1 5.65q-3.1 2.85-4.1 4.1-1.7 2.05-1.75 3.7-.15 1.6 1.3 3.85.85 1.3 3.6 4.55 1.5 1.65 2.6 2.7.9.95 1.5 1.4 2.05 1.65 3.65 1.7 1.65.15 3.9-1.25.8-.55 2.45-1.85l2.1-1.75q3.05-2.85 4.1-4.1 1.7-2.05 1.75-3.7.15-1.65-1.3-3.85-.85-1.3-3.6-4.55-2.85-3.1-4.1-4.1-2.05-1.7-3.7-1.75-1.65-.15-3.85 1.3-1.35.85-4.55 3.6zM833 458.7q-.9-.9-1.65-1-.75-.1-1.85.45-.65.35-2.3 1.5-1.55 1.25-2.1 1.8-.85.9-.95 1.65-.15.75.45 1.85.35.65 1.5 2.3 1.2 1.6 1.75 2.1.9.9 1.65.95.8.15 1.85-.45.7-.35 2.3-1.5 1.6-1.25 2.1-1.75.9-.9.95-1.65.15-.8-.4-1.85-.35-.65-1.5-2.3-1.25-1.6-1.8-2.1m-13.75 27.25l-.05.05q-.9 1.55-.75 2.65.05 1.1 1.3 2.45.7.8 2.9 2.65 2.3 1.75 3.25 2.25 1.55.9 2.65.75 1.15-.1 2.45-1.3.8-.75 2.65-2.95 1.75-2.25 2.3-3.2.9-1.55.7-2.7 0-.3-.1-.65-.3-.85-1.2-1.8-.75-.8-2.9-2.6-2.3-1.75-3.25-2.3-1.55-.9-2.65-.75-1.15.1-2.45 1.3-.8.75-2.65 2.95-1.7 2.25-2.2 3.2z" fill="#7D9598"/><path d="M814.05 457.55q1.2.9 4.3 3.85 2.9 3.05 3.85 4.35 1.55 2.15 1.5 3.8.05 1.65-1.5 3.75-.95 1.3-3.85 4.35-3.1 2.95-4.3 3.85l-.05.05V494l.3.2q.55.45 2.05 1.85 1.4 1.45 1.8 2 .75 1.05.7 1.8.05.8-.7 1.8-.4.55-1.8 2.05-1.5 1.4-2.05 1.8-.15.15-.3.25V508h4q.95-.8 1.5-1.15 1.5-.95 2.65-.8 1.1 0 2.5 1.2.3.25.75.75h4.3q-.05-1.55 1.45-3.55.9-1.25 3.7-4.2 2.95-2.8 4.15-3.7 2.05-1.5 3.6-1.45 1.6-.05 3.65 1.45 1.2.9 4.15 3.7 2.8 2.95 3.7 4.2 1.5 2 1.45 3.55h4.1q.6-.7 1.45-1.55 2.05-1.95 2.95-2.6 1.45-1.05 2.55-1.05 1.15 0 2.6 1.05.85.6 2.95 2.6.8.85 1.45 1.55h4.4v-2.3q-.85.55-1.5.5-.8.05-1.8-.7-.6-.4-2.05-1.8-1.35-1.45-1.8-2.05-.75-1-.7-1.8-.05-.75.7-1.8.45-.55 1.8-2 1.45-1.4 2.05-1.85 1-.7 1.8-.7.65 0 1.5.5v-12.45q-2.1 1.5-3.75 1.45-1.65.05-3.75-1.5-1.3-.95-4.35-3.85-2.9-3.05-3.85-4.35-1.55-2.1-1.5-3.75-.05-1.65 1.5-3.8.95-1.3 3.85-4.35 3.05-2.9 4.35-3.85 2.1-1.55 3.75-1.5 1.65-.05 3.7 1.5h.05v-3.25l-.05-.05q-.5-.65-.75-1.1-1-1.5-.85-2.65.05-1.1 1.2-2.45l.1-.1q.1-.2.3-.35 0-.05.05-.05V444h-4.45q.85.9 1.2 1.4 1.05 1.4 1.05 2.55v.05q0 1.1-1.05 2.55-.65.9-2.6 2.95-2.1 2-2.95 2.65-1.45 1.05-2.6 1-1.1.05-2.55-1-.9-.65-2.95-2.65-2-2.05-2.65-2.95-1.05-1.45-1-2.55v-.05q-.05-1.15 1-2.55.4-.5 1.25-1.4h-4.15q.05 1.6-1.45 3.65l-.2.3q-1 1.25-3.5 3.85-2.95 2.8-4.15 3.7-2.05 1.5-3.65 1.45-1.55.05-3.6-1.45-1.2-.9-4.15-3.7-2.5-2.6-3.45-3.85-.15-.15-.25-.3-1.5-2.05-1.45-3.65h-4.3q.8.75 2 2.05.9 1.1 1.55 1.9.55.8.85 1.25.95 1.55.8 2.65-.05 1.15-1.2 2.5-.7.85-2.85 2.75-2.15 1.8-3.1 2.4-1.55.95-2.65.85-1.15-.05-2.5-1.2-.8-.7-2.75-2.85-.95-1.2-1.55-2v3.25h.05M819.2 486l.05-.05q.5-.95 2.2-3.2 1.85-2.2 2.65-2.95 1.3-1.2 2.45-1.3 1.1-.15 2.65.75.95.55 3.25 2.3 2.15 1.8 2.9 2.6.9.95 1.2 1.8.1.35.1.65.2 1.15-.7 2.7-.55.95-2.3 3.2-1.85 2.2-2.65 2.95-1.3 1.2-2.45 1.3-1.1.15-2.65-.75-.95-.5-3.25-2.25-2.2-1.85-2.9-2.65-1.25-1.35-1.3-2.45-.15-1.1.75-2.65m12.15-28.3q.75.1 1.65 1 .55.5 1.8 2.1 1.15 1.65 1.5 2.3.55 1.05.4 1.85-.05.75-.95 1.65-.5.5-2.1 1.75-1.6 1.15-2.3 1.5-1.05.6-1.85.45-.75-.05-1.65-.95-.55-.5-1.75-2.1-1.15-1.65-1.5-2.3-.6-1.1-.45-1.85.1-.75.95-1.65.55-.55 2.1-1.8 1.65-1.15 2.3-1.5 1.1-.55 1.85-.45m3 13.45q1-1.25 4.1-4.1 3.2-2.75 4.55-3.6 2.2-1.45 3.85-1.3 1.65.05 3.7 1.75 1.25 1 4.1 4.1 2.75 3.25 3.6 4.55 1.45 2.2 1.3 3.85-.05 1.65-1.75 3.7-1.05 1.25-4.1 4.1l-2.1 1.75q-1.65 1.3-2.45 1.85-2.25 1.4-3.9 1.25-1.6-.05-3.65-1.7-.6-.45-1.5-1.4-1.1-1.05-2.6-2.7-2.75-3.25-3.6-4.55-1.45-2.25-1.3-3.85.05-1.65 1.75-3.7zm22.5-19.5q.6.4 2.05 1.8 1.4 1.5 1.8 2.05.75 1 .7 1.75.05.8-.7 1.8-.4.6-1.8 2.05-1.45 1.4-2.05 1.85-1 .7-1.8.7-.75 0-1.75-.7-.6-.45-2.05-1.85-1.4-1.45-1.85-2.05-.7-1-.7-1.8 0-.75.7-1.75.45-.6 1.85-2.05 1.45-1.4 2.05-1.8 1-.75 1.75-.75.8 0 1.8.75zm.2 34.3q.5-.55 1.15-1.25 2.05-1.95 2.95-2.65 1.45-1.05 2.55-1 1.15-.05 2.6 1 .85.65 2.95 2.65.65.7 1.2 1.25 1 1.1 1.45 1.7 1.05 1.45 1 2.55.05 1.15-1 2.6-.65.9-2.65 2.95-2.1 2-2.95 2.65-1.45 1.05-2.6 1-1.1.05-2.55-1-.9-.7-2.95-2.65-1.95-2.05-2.6-2.95-1.1-1.45-1.05-2.6-.05-1.1 1.05-2.55.45-.6 1.45-1.7M814 444v3.55q.75-.85 2.35-2.3.95-.75 1.65-1.25h-4z" fill="#758C8E"/></symbol><symbol style="isolation:isolate" viewBox="8.999 358.037 46.002 70.963" id="playerFront" xmlns="http://www.w3.org/2000/svg"><path d="M19.1 376q-6.15.85-6.95 5.85-.15.35-.15.75v9.95q-.05 1.85.85 2.95-1 .35-1.85 1.1l-.05.05q-2 1.8-1.95 4.25v.15q0 2.5 1.95 4.15 1.2 1.2 2.75 1.6 0 .047.05.1l-.05-.05q.05.55.2 1-.85.45-1.55 1.2-.05 0-.05.05-2.35 2.25-2.3 5.3 0 1.45.55 2.75-.1 1.25.3 2.7v.05q.65 2.5 2.8 4.05.05.05.15.1l.2.1q0 .3.05.6-.05 1.85 2.7 3.15h-.05l.2.1q.1.05.15.05.55.25 1.25.45.05 0 .1.05 1.7.45 3.8.45 2.1 0 3.8-.45.05-.05.15-.05.55-.25 1.1-.45.05 0 .15-.05 1.2-.6 1.85-1.2l.15-.15q.7-.85.9-1.65.05-.25.05-.5v-1.15q.75-.1 1.65-.1.9 0 1.7.1-.05.35-.05.7 0 .4.05.7-.05 1.85 2.7 3.15h-.05q.2.1.55.2.45.2 1 .4.05 0 .15.05 1.7.45 3.8.45 2.15 0 3.8-.45.05-.05.15-.05l1.1-.4q.1-.05.25-.1 1.1-.6 1.75-1.2l.15-.15q.7-.85.9-1.65.05-.25.05-.5v-.35q.1-.05.25-.1l.1-.1q2.15-1.55 2.85-4.05v-.05q.35-1.45.25-2.7.55-1.3.55-2.75.05-3.05-2.3-5.3 0-.05-.05-.05-.65-.7-1.45-1.15l.1-.4v-.05q.05-.2.1-.35.05-.2.05-.35 1.4-.4 2.55-1.45 2.05-1.75 2-4.25 0-2.65-1.95-4.4l-.05-.05q-.85-.75-1.85-1.1.85-1.1.85-2.95v-9.95q0-.45-.15-.8-.85-4.95-6.9-5.75-12.95-2-25.8-.05h-.05z" fill="#694C39"/><path d="M22.2 419q-2.55 0-4.4 1.5-1.8 1.45-1.8 3.55 0 .15.05.2v.25q.1.9 1.55 1.6l.2.1q.5.2 1.1.4 1.5.4 3.3.4 1.8 0 3.25-.4.55-.2 1.05-.4.9-.45 1.4-.9.35-.4.45-.8v-.45q0-2.1-1.85-3.55-1.75-1.5-4.3-1.5zM41.85 419q-2.55 0-4.35 1.5-1.85 1.45-1.85 3.55 0 .15.05.2v.25q.1.9 1.55 1.6.1.05.25.1.5.2 1.05.4 1.5.4 3.3.4 1.85 0 3.25-.4l1.1-.4q.85-.45 1.35-.9.35-.4.45-.8v-.45q0-2.1-1.8-3.55-1.8-1.5-4.35-1.5z" fill="#333"/><path d="M25.8 423q.2-.15.45-.35 2.35-1.4 5.75-1.4t5.75 1.4q.2.2.45.35h1.55q-.6-2.2-2-4.1-.25-.3-.45-.55-2.25-2.4-5.3-2.4t-5.25 2.4q-.25.25-.5.55-1.45 1.9-2 4.1h1.55z" fill="#CD4335"/><path d="M16.25 421.35q1 1.65 3.5 1.65h4.5q.55-2.2 2-4.1.25-.3.5-.55 2.2-2.4 5.25-2.4t5.3 2.4q.2.25.45.55 1.4 1.9 2 4.1h4.5q3.4 0 4.1-2.95l.1-.4q0-.15.05-.35.05-.45.15-.95v-.05q.5-7.55-3.2-10.85H18.6q-3.65 3.55-3.1 10.9.05.65.2 1.3.05.45.15.75.15.55.4.95z" fill="#E74C3C"/><path d="M15.4 397q-1.8 0-3.1 1.1-1.3 1.2-1.3 2.8v.15q0 1.65 1.3 2.7 1.3 1.25 3.1 1.25 1.85 0 3.15-1.25 1.3-1.1 1.3-2.7 0-1.75-1.3-2.95-1.3-1.1-3.15-1.1zm33.15 0q-1.85 0-3.15 1.1-1.25 1.2-1.3 2.8v.15q.05 1.65 1.3 2.7 1.3 1.25 3.15 1.25 1.85 0 3.15-1.25 1.3-1.1 1.3-2.7 0-1.75-1.3-2.95-1.3-1.1-3.15-1.1z" fill="#D7BD93"/><path d="M24.25 410.3q.55 1.2 2 2.15Q28.6 414 32 414t5.75-1.55q1.4-.95 2-2.15h-15.5z" fill="#2ECC71"/><path d="M15.05 396.15q-.05 1.55 0 3.15 4.75-3.85 4.75-12.2-.05-.5-.05-1.1-1.9 0-2.95 1.1-.9.95-1.1 2.65-.5 3.2-.65 6.4M44.25 386q.05.6.1 1.1.65 8 4.65 12.2.05-1.9-.05-3.8-.2-2.9-.55-5.85-.25-1.6-1.1-2.55-1.05-1.1-3.05-1.1z" fill="#694C39"/><path d="M44.35 387.1q-.05-.5-.1-1.1h-24.5q0 .6.05 1.1 0 8.35-4.75 12.2.05 3.65.65 7.3.05.45.15.8.15.65.4 1.1 1 1.8 3.5 1.8h24.5q3.4 0 4.1-3.25.05-.25.1-.45 0-.2.05-.4.4-3.1.5-6.3v-.6q-4-4.2-4.65-12.2z" fill="#FFE0B1"/><path d="M42.4 402.1q.6-.8.6-2.1t-.6-2.1q-.5-.9-1.4-.9-.8 0-1.4.9-.6.8-.6 2.1t.6 2.1q.6.9 1.4.9.9 0 1.4-.9zM21 400q0 1.3.6 2.1.6.9 1.4.9.85 0 1.4-.9.6-.8.6-2.1t-.6-2.1q-.55-.9-1.4-.9-.8 0-1.4.9-.6.8-.6 2.1zM25 407.3q0 .75 2.05 1.2 2.1.5 4.95.5 2.9 0 5-.5 2-.45 2-1.2 0-1.75-2-3-2.1-1.3-5-1.3-2.85 0-4.95 1.3-1.85 1.25-2.05 3z" fill="#694C39"/><path d="M49.95 382.6q-.55-3.95-5.3-4.6-12.65-1.95-25.25-.05-4.85.7-5.35 4.65H14v7.6q18.25-2.05 36 0v-7.6h-.05z" fill="#28B162"/><path d="M47.35 395q2.65 0 2.65-2.45v-2.35q-17.75-2.05-36 0v2.35q-.05 2.45 2.65 2.45h30.7z" fill="#2ECC71"/><path d="M29 403.9q0 .45.9.8.9.3 2.15.3 1.2 0 2.1-.3.85-.35.85-.8 0-1.15-.85-2-.9-.9-2.1-.9-1.25 0-2.15.9-.8.85-.9 2z" fill="#D7BD93"/><g><path d="M20.8 413.15q-.3-.15-.55-.25-1.75-.85-3.55-.35-2.35.65-3.5 2.6-.5.85-.6 1.65-.2 1.2.15 2.55.5 1.85 2.05 2.95.25.15.55.3.1.1.2.15 1.15.6 2.65-.3 1.65-.9 2.75-2.9 1.15-1.9 1.15-3.85-.05-1.75-1.1-2.4-.05-.05-.1-.05l-.1-.1z" fill="#FFE0B1"/><path d="M16.45 409q-1.6.3-2.7 1.45-1.75 1.7-1.75 3.95 0 1.3.6 2.4.1-.8.6-1.65 1.15-1.95 3.5-2.6 1.8-.5 3.55.35.25.1.55.25-4.05-2.8-4.35-4.15z" fill="#2ECC71"/></g><g><path d="M51.4 416.8q-.15-.8-.6-1.65-1.15-1.95-3.5-2.6-1.8-.5-3.55.35-.25.1-.55.25l-.1.1q-.05 0-.1.05-1.05.65-1.1 2.4 0 1.95 1.15 3.85 1.1 2 2.75 2.9 1.5.9 2.65.3.1-.05.2-.15.3-.15.55-.3 1.55-1.1 2.05-2.95.35-1.35.15-2.55z" fill="#FFE0B1"/><path d="M50.25 410.45q-1.1-1.15-2.7-1.45-.3 1.35-4.35 4.15.3-.15.55-.25 1.75-.85 3.55-.35 2.35.65 3.5 2.6.45.85.6 1.65.6-1.1.6-2.4 0-2.25-1.75-3.95z" fill="#2ECC71"/></g><path d="M31.95 383q-3.3 0-5.7 1.9-2.05 1.75-2.25 4.1h16q-.25-2.35-2.4-4.1-2.3-1.9-5.65-1.9z" fill="#FFF"/></symbol><symbol style="isolation:isolate" viewBox="666 501 64 81" id="wall3dBrown" xmlns="http://www.w3.org/2000/svg"><path d="M683 569v11h30v-11h-30zm30 13h2v-2h-2v2zm-32-2v2h2v-2h-2zm0-11h-13v5.95h.05q.45 5.05 5.9 5.05H681v-11zm-13-32v14h13v-14h-13zm0 16v14h29v-14h-29zm0 14h-2v2h2v-2zm0-16h-2v2h2v-2zm-2-14h2v-2h-2v2zm47 14v-14h-30v14h30zm2 0h13v-14h-13v14zm13 18h-13v11h7.05q5.45 0 5.95-5.05V569zm0-2v-14h-29v14h29zm0 0v2h2v-2h-2zm2-14v-2h-2v2h2zm-2-18v2h2v-2h-2zm-5.95-13H699v13h29v-7.05q0-5.95-5.95-5.95zM697 522h-23.05q-5.95 0-5.95 5.95V535h29v-13zm0 0h2v-2h-2v2z" fill="#AA733C"/><path d="M683 580v2h30v-2h-30zm-15-11h-2v5.95h.05q.4 6.8 7.4 7.05H681v-2h-7.05q-5.45 0-5.9-5.05H668V569zm0-16h-2v14h2v-14zm0-16h-2v14h2v-14zm62 32h-2v5.95q-.5 5.05-5.95 5.05H715v2h7.55q7-.25 7.45-7.05V569zm0-16h-2v14h2v-14zm0-16h-2v14h2v-14zm-33-15v-2h-23.55q-7.2.25-7.45 7.45V535h2v-7.05q0-5.95 5.95-5.95H697zm2-2v2h23.05q5.95 0 5.95 5.95V535h2v-7.55q-.25-7.2-7.45-7.45H699z" fill="#BD8042"/><path d="M683 569h-2v11h2v-11zm16-2v-14h-2v14h2zm-16-30h-2v14h2v-14zm32 32h-2v11h2v-11zm0-32h-2v14h2v-14zm-16-15h-2v13h2v-13z" fill="#9C6935"/><path d="M713 569h15v-2h-60v2h45zm2-18h-47v2h60v-2h-13zm13-14v-2h-60v2h60z" fill="#8A5D2F"/><g><path d="M673.25 518q-1.05.05-1.95.25-4.1.9-5 5-.25 1.05-.3 2.3v27.6q.05 2.4 2 3.6 1.85 1.15 5.45 1.2h49.1q3.6-.05 5.45-1.2 1.95-1.2 2-3.6v-27.6q-.05-1.3-.25-2.3-.1-.3-.15-.55-.4-1.25-1.1-2.2-1.3-1.7-3.75-2.25-.9-.2-1.95-.25h-49.55m-5 5.75v-.05q.65-2.85 3.5-3.5.55-.1 1.1-.15l49.85-.05q.85.05 1.6.2 1.7.4 2.6 1.55v-.05q.5.65.8 1.55.05.25.15.55.1.8.15 1.85v29.1q-1.85 1.15-5.45 1.2h-49.1q-3.6-.05-5.45-1.2v-29.1q.05-1.05.25-1.9z" fill="#BD8042"/><path d="M668.25 523.7v.05q-.2.85-.25 1.9v29.1q1.85 1.15 5.45 1.2h49.1q3.6-.05 5.45-1.2v-29.1q-.05-1.05-.15-1.85-.1-.3-.15-.55-.3-.9-.8-1.55v.05q-.9-1.15-2.6-1.55-.75-.15-1.6-.2l-49.85.05q-.55.05-1.1.15-2.85.65-3.5 3.5m55.55.6l.05.05.05.05v.2q.05.55.1 1.25v26q-.65.1-1.45.1h-49.1q-.8 0-1.45-.1v-26q.05-.65.15-1.15 0-.1.05-.2.1-.3.45-.4h-.05q.2-.05.45-.05l49.45-.05.9.1q.2.05.35.15.05 0 .05.05m.05.1v-.05.05z" fill="#AA733C"/><path d="M723.9 524.55v-.15l-.05-.05v.05q.048.068.05.15z" fill="#9F6B37"/><path d="M723.85 524.35l-.05-.05q0-.05-.05-.05-.15-.1-.35-.15l-.9-.1-49.45.05q-.25 0-.45.05h.05q-.35.1-.45.4-.05.1-.05.2-.1.5-.15 1.15v26q.65.1 1.45.1h49.1q.8 0 1.45-.1v-26q-.05-.7-.1-1.25v-.05q-.002-.082-.05-.15v-.05z" fill="#916132"/></g></symbol></svg>